<svg width="67" height="70" viewBox="0 0 67 70" fill="none" xmlns="http://www.w3.org/2000/svg">
<path d="M28.7719 18.3496V6.0575H6.18858C4.43788 6.0575 3.01361 7.48177 3.01361 9.2327V22.0224C3.01361 23.593 4.18758 24.944 5.74454 25.1651L6.73468 25.3055L7.07808 26.245C7.52659 27.4727 8.70716 28.2979 10.0155 28.2979C11.308 28.2979 12.4838 27.4854 12.9406 26.2763L13.3486 25.1974H29.0224C29.8353 25.1974 30.577 24.8898 31.1387 24.3854C29.671 22.7978 28.7719 20.6771 28.7719 18.3496Z" fill="#DEDEDE"/>
<path d="M37.6708 23.9095H51.6446L52.1426 24.6262C53.1799 26.1189 54.8754 27.01 56.6775 27.01C58.6003 27.01 60.4125 25.9829 61.4069 24.3293L61.7203 23.8082L62.2949 23.6107C64.5493 22.836 66.0643 20.7216 66.0643 18.3496V5.56015C66.0645 2.4943 63.5702 0 60.5044 0H37.6706C34.6047 0 32.1107 2.4943 32.1107 5.56015V18.3498C32.1109 21.4155 34.605 23.9095 37.6708 23.9095ZM54.0698 9.68778C54.516 9.24398 55.1286 8.98872 55.7557 8.98872C56.3857 8.98872 56.9983 9.24398 57.4444 9.68778C57.888 10.1313 58.1433 10.7465 58.1433 11.3737C58.1433 12.0011 57.888 12.6141 57.4444 13.06C56.9983 13.5036 56.3857 13.7586 55.7557 13.7586C55.1286 13.7586 54.5158 13.5036 54.0698 13.06C53.626 12.6162 53.3734 12.0011 53.3734 11.3737C53.3734 10.7444 53.626 10.1313 54.0698 9.68778ZM47.6756 9.68778C48.1192 9.24398 48.7345 8.98872 49.3617 8.98872C49.9889 8.98872 50.6045 9.24398 51.0478 9.68778C51.494 10.1313 51.7467 10.7465 51.7467 11.3737C51.7467 12.0011 51.494 12.6141 51.0478 13.06C50.6043 13.5036 49.9889 13.7586 49.3617 13.7586C48.7345 13.7586 48.1192 13.5036 47.6756 13.06C47.232 12.6162 46.9768 12.0011 46.9768 11.3737C46.9768 10.7444 47.232 10.1313 47.6756 9.68778ZM41.2813 9.68778C41.7251 9.24398 42.3401 8.98872 42.9675 8.98872C43.5949 8.98872 44.2102 9.24398 44.6536 9.68778C45.0974 10.1313 45.3526 10.7465 45.3526 11.3737C45.3526 12.0011 45.0974 12.6141 44.6536 13.06C44.21 13.5036 43.5949 13.7586 42.9675 13.7586C42.3401 13.7586 41.7251 13.5036 41.2813 13.06C40.8375 12.6162 40.5825 12.0011 40.5825 11.3737C40.5825 10.7444 40.8375 10.1313 41.2813 9.68778Z" fill="#DEDEDE"/>
<path d="M14.1907 53.2745C19.8456 53.2745 24.4463 48.6739 24.4463 43.0187C24.4463 37.3641 19.8459 32.7634 14.1907 32.7634C8.53607 32.7634 3.93518 37.3641 3.93518 43.0187C3.93542 48.6739 8.53607 53.2745 14.1907 53.2745Z" fill="#DEDEDE"/>
<path d="M26.8051 61.015C25.7409 56.7582 21.4702 53.424 17.0826 53.424H11.299C6.91145 53.424 2.64099 56.7585 1.57662 61.015L0.0712713 67.0362C-0.10691 67.7489 0.0531232 68.5038 0.505176 69.0827C0.957228 69.6615 1.65063 70 2.38527 70H25.9969C26.731 70 27.4249 69.6618 27.8767 69.0827C28.3288 68.5038 28.4888 67.7492 28.3106 67.0362L26.8051 61.015Z" fill="#DEDEDE"/>
<path d="M66.4706 67.0365L65.1175 61.6231C64.1352 57.6942 60.1933 54.6163 56.1432 54.6163H50.9436C46.8935 54.6163 42.9516 57.6942 41.9693 61.6231L40.6162 67.0362C40.438 67.7487 40.598 68.5036 41.0501 69.0825C41.5019 69.6613 42.1955 69.9998 42.9302 69.9998H64.1571C64.8915 69.9998 65.5854 69.6616 66.0372 69.0825C66.4888 68.5036 66.6488 67.749 66.4706 67.0365Z" fill="#DEDEDE"/>
<path d="M53.5433 34.0753C48.6115 34.0753 44.5996 38.0872 44.5996 43.0188C44.5996 47.9506 48.6115 51.9625 53.5433 51.9625C58.4751 51.9625 62.487 47.9504 62.487 43.0188C62.4873 38.0875 58.4751 34.0753 53.5433 34.0753Z" fill="#DEDEDE"/>
</svg>
