<svg width="73" height="70" viewBox="0 0 73 70" fill="none" xmlns="http://www.w3.org/2000/svg">
<path d="M71.1014 40.9184L67.4254 37.2424C65.9705 35.7888 63.4373 35.7888 61.9811 37.2424L42.1307 57.0941L39.395 67.1276L38.7256 67.7971C38.2251 68.2975 38.2238 69.1049 38.7178 69.6093L38.7114 69.6351L38.7359 69.6286C38.9861 69.8737 39.3111 70.0001 39.6375 70.0001C39.9677 70.0001 40.2978 69.8737 40.5494 69.6222L41.2201 68.9515L51.2523 66.2157L71.1027 46.3641C72.604 44.8627 72.604 42.4198 71.1014 40.9184ZM45.1089 57.7648L58.3205 44.5545L63.7933 50.0259L50.5816 63.2375L45.1089 57.7648ZM43.9442 60.2477L48.0974 64.401L42.3861 65.9591L43.9442 60.2477ZM69.2776 44.5403L65.6158 48.2021L60.1431 42.7306L63.8049 39.0688C64.286 38.5877 65.1231 38.589 65.6029 39.0675L69.2789 42.7435C69.7742 43.2375 69.7742 44.045 69.2776 44.5403Z" fill="#DEDEDE"/>
<path d="M34.8252 55.4637C34.1132 55.4637 33.5354 54.8871 33.5354 54.1739C33.5354 53.4606 34.1132 52.884 34.8252 52.884H40.8693L57.637 36.1163H34.8252C34.1132 36.1163 33.5354 35.5398 33.5354 34.8265C33.5354 34.1132 34.1132 33.5367 34.8252 33.5367H58.042C58.6354 33.5367 59.1139 33.9456 59.2648 34.4912C60.7223 33.0427 62.6532 32.2469 64.7053 32.2469C66.5342 32.2469 68.2652 32.8815 69.6505 34.0436V15.7049C69.6505 7.04501 62.6054 0 53.9456 0H15.7049C7.04501 0.00128982 0 7.04501 0 15.7049V53.9456C0 62.6054 7.04501 69.6505 15.7049 69.6505H34.6962L38.5657 55.4624H34.8252V55.4637ZM34.8252 15.4792H58.042C58.754 15.4792 59.3319 16.0557 59.3319 16.769C59.3319 17.4823 58.754 18.0588 58.042 18.0588H34.8252C34.1132 18.0588 33.5354 17.4823 33.5354 16.769C33.5354 16.0557 34.1132 15.4792 34.8252 15.4792ZM26.6839 48.5631L17.8395 58.8804C17.5855 59.1771 17.2243 59.3319 16.8593 59.3319C16.5897 59.3319 16.3176 59.248 16.0854 59.0739L10.1896 54.6511C9.6195 54.2242 9.50471 53.4155 9.93164 52.8466C10.3599 52.2765 11.1673 52.163 11.7374 52.5887L16.6671 56.2853L24.7259 46.8864C25.189 46.3446 26.0054 46.2827 26.5446 46.7471C27.085 47.2088 27.1469 48.0227 26.6839 48.5631ZM26.6839 29.2158L17.8395 39.5344C17.5855 39.831 17.2243 39.9858 16.8593 39.9858C16.5897 39.9858 16.3176 39.902 16.0854 39.7278L10.1896 35.305C9.6195 34.8781 9.50471 34.0694 9.93164 33.5006C10.3599 32.9305 11.1673 32.8157 11.7374 33.2426L16.6671 36.9393L24.7259 27.539C25.189 26.9973 26.0054 26.9354 26.5446 27.3997C27.085 27.8615 27.1469 28.6754 26.6839 29.2158ZM26.6839 11.1583L17.8395 21.4768C17.5855 21.7735 17.2243 21.9283 16.8593 21.9283C16.5897 21.9283 16.3176 21.8444 16.0854 21.6703L10.1896 17.2475C9.6195 16.8206 9.50471 16.0119 9.93164 15.4431C10.3599 14.873 11.1673 14.7582 11.7374 15.1851L16.6671 18.8817L24.7259 9.48149C25.189 8.93977 26.0054 8.87785 26.5446 9.34219C27.085 9.80395 27.1469 10.6178 26.6839 11.1583Z" fill="#DEDEDE"/>
</svg>
