<svg width="60" height="50" viewBox="0 0 60 50" fill="none" xmlns="http://www.w3.org/2000/svg">
<path fill-rule="evenodd" clip-rule="evenodd" d="M9.00114 40.5537V36.7399C9.00114 36.2388 9.31441 35.8362 9.83327 35.8362H9.97685C10.4955 35.8362 10.8073 36.2392 10.8073 36.7399V44.7691C10.8073 46.7271 9.84003 48.285 8.15433 49.2775C7.38215 49.735 6.50071 49.9754 5.60318 49.9733H5.24492C3.28651 49.9733 1.73064 49.0053 0.736518 47.3207C0.278382 46.5487 0.0380193 45.6669 0.0409816 44.7691V44.4113C0.0409816 42.4527 1.00877 40.8956 2.69306 39.9013C3.46511 39.4429 4.34703 39.2024 5.24492 39.2055H5.60318C6.92852 39.2055 8.05294 39.7192 9.00114 40.5537ZM1.84695 44.5899C1.84695 46.0042 2.53247 47.0676 3.7718 47.7459C4.27294 48.02 4.81697 48.1673 5.38873 48.1673C6.77701 48.1673 7.8068 47.5123 8.51702 46.3359C8.84731 45.7886 9.00114 45.1898 9.00114 44.5533C9.00114 43.3272 8.42075 42.3704 7.43269 41.6597C6.83365 41.229 6.15933 41.0129 5.42393 41.0129C3.91072 41.0129 2.82173 41.7774 2.16815 43.1354C1.94765 43.5946 1.84695 44.082 1.84695 44.5899ZM17.0732 39.2055H17.3236C19.4162 39.2055 21.0078 40.2206 22.0163 42.0473C22.4196 42.7781 22.6354 43.5757 22.6354 44.4113V44.7691C22.6354 46.7271 21.67 48.2871 19.9817 49.2777C19.2002 49.7362 18.3368 49.9733 17.431 49.9733H17.0732C15.1148 49.9733 13.5585 49.0053 12.5648 47.3207C12.1065 46.5487 11.8659 45.6669 11.8686 44.7691V44.4113C11.8686 42.4524 12.8403 40.9005 14.5205 39.9017C15.3015 39.4377 16.1656 39.2055 17.0732 39.2055ZM13.6748 44.5899C13.6748 45.9628 14.3484 46.9727 15.508 47.683C16.0525 48.0163 16.6523 48.1673 17.2884 48.1673C18.645 48.1673 19.6477 47.4795 20.3456 46.3345C20.6784 45.7886 20.829 45.1889 20.829 44.5533C20.829 43.2766 20.2141 42.3014 19.1629 41.5947C18.5869 41.207 17.9457 41.0129 17.252 41.0129C15.7388 41.0129 14.6498 41.7774 13.9965 43.1354C13.7755 43.5946 13.6748 44.082 13.6748 44.5899ZM30.1439 41.1572C29.8712 41.0294 29.3607 40.987 29.0661 40.9758C27.5571 40.9189 26.4653 41.7688 25.8248 43.1C25.6036 43.5591 25.5027 44.0451 25.5027 44.5533C25.5027 46.1003 26.315 47.1834 27.6958 47.8438C28.2002 48.0848 28.8514 48.1305 29.4027 48.1305C29.8875 48.1305 30.5728 47.8335 31.0031 47.6291L31.0777 47.5937H31.4117L31.4485 47.6011C31.8592 47.6867 32.1692 47.947 32.1692 48.389V48.5678C32.1692 49.6675 30.1595 49.9192 29.3927 49.9728C26.6865 50.16 24.6626 48.6738 23.8911 46.0926C23.7571 45.6444 23.6967 45.1992 23.6967 44.732V44.3747C23.6967 42.4161 24.6687 40.8646 26.3485 39.8668C27.1296 39.4029 27.9934 39.1699 28.9009 39.1699H29.2589C30.2215 39.1699 31.1082 39.4433 31.903 39.9861L31.9683 40.0313L32.0096 40.0994C32.0953 40.2416 32.1692 40.4062 32.1692 40.5754V40.7542C32.1692 41.2152 31.8243 41.4632 31.408 41.5434L31.3735 41.5495H31.2667C30.9973 41.5495 30.3845 41.2704 30.1439 41.1572ZM36.0024 42.3802C36.704 41.6777 37.4079 40.9765 38.12 40.2856C38.3183 40.0929 39.0696 39.2771 39.3654 39.2771H39.6889L39.7257 39.2848C40.1378 39.3703 40.4464 39.6311 40.4464 40.074V40.2525C40.4464 40.5546 40.0926 40.9057 39.8975 41.1124C39.4826 41.5522 39.0458 41.9776 38.6211 42.4084L36.4389 44.6237C37.3785 45.5653 38.3172 46.5077 39.2491 47.4566C39.5075 47.7185 39.764 47.9824 40.0185 48.2482C40.1082 48.3426 40.2406 48.4601 40.3159 48.5908C40.3968 48.7134 40.4464 48.8517 40.4464 48.9992V49.1857L40.436 49.2288C40.3346 49.6409 40.073 49.9733 39.6164 49.9733H39.4726C39.1738 49.9733 38.8363 49.6353 38.6316 49.4421C38.2097 49.0444 37.8025 48.6263 37.389 48.22L36.0024 46.8587V49.0344C36.0024 49.5355 35.6886 49.9383 35.1705 49.9383H35.0283C34.5094 49.9383 34.1962 49.5355 34.1962 49.0344V36.7749C34.1962 36.2737 34.5097 35.8728 35.0283 35.8728H35.1705C35.6886 35.8728 36.0024 36.2737 36.0024 36.7749V42.3802ZM58.5134 39.2771H58.6929C59.2346 39.2771 59.5961 39.6421 59.5961 40.1808C59.5961 40.9285 58.8812 41.1199 58.2628 41.1199C57.4517 41.1199 56.6771 41.611 56.1179 42.1618C55.4208 42.8492 55.1156 43.7295 55.1156 44.6973V49.0698C55.1156 49.571 54.8026 49.9733 54.2835 49.9733H54.1409C53.6218 49.9733 53.309 49.5712 53.309 49.0698V44.4463C53.309 42.6708 54.1733 41.2215 55.6142 40.205C56.4745 39.5978 57.46 39.2771 58.5134 39.2771ZM45.6762 47.9424C46.3336 48.172 47.0829 48.1391 47.7573 48.0216C48.1022 47.875 48.9842 47.4902 49.3087 47.5466L49.3593 47.5552L49.4059 47.5781C49.604 47.6741 49.7931 47.81 49.8942 48.0116C50.1306 48.4841 50.0171 48.9591 49.5527 49.2274L49.3982 49.3167C47.685 50.3054 45.8627 50.1684 44.1549 49.2449C43.3384 48.8034 42.7137 48.1482 42.2529 47.3494L42.1452 47.1627C41.0452 45.2579 41.1937 43.2543 42.4342 41.4429C42.8624 40.8169 43.422 40.3332 44.0763 39.9549L44.3239 39.812C45.9373 38.8806 47.6666 38.9445 49.3236 39.7619C50.2147 40.2015 50.9366 40.8567 51.434 41.7184L51.5235 41.8737C51.8848 42.4998 51.4168 43.0452 50.9336 43.4181C50.3728 43.8507 49.8066 44.3715 49.2691 44.8353C48.0705 45.87 46.8739 46.907 45.6762 47.9424ZM44.125 46.8529C45.4653 45.7038 46.806 44.5535 48.1428 43.3995C48.5996 43.0056 49.1006 42.5967 49.5537 42.1825C49.1901 41.7243 48.5826 41.394 48.0666 41.197C47.0247 40.8001 45.9974 40.9334 45.042 41.4849C43.7915 42.207 43.2589 43.3568 43.3055 44.7878C43.3242 45.3514 43.4757 45.8945 43.7747 46.3739C43.8801 46.5429 43.9978 46.7016 44.125 46.8529ZM34.3777 10.6596H39.7075V16.1081H42.4023C43.647 16.1081 44.9269 15.8864 46.1054 15.4871C46.6846 15.2906 47.3344 15.0174 47.9057 14.6736C47.1533 13.6914 46.7692 12.4511 46.6564 11.2286C46.5025 9.56549 46.8382 7.40103 47.9635 6.09946L48.5239 5.45148L49.1915 5.98828C50.8723 7.33856 52.2859 9.22565 52.5351 11.3768C54.559 10.7815 56.9354 10.9223 58.7192 11.9519L59.4511 12.3742L59.066 13.1262C57.5572 16.0705 54.4029 16.9828 51.3191 16.8213C46.7046 28.3147 36.6583 33.7559 24.4773 33.7559C18.1839 33.7559 12.4103 31.4033 9.12235 25.8199L9.06851 25.729L8.58951 24.7542C7.47814 22.2966 7.10893 19.6042 7.35927 16.9138L7.43455 16.1081H11.9924V10.6596H17.3219V5.32981H27.9818V0H34.3777V10.6596Z" fill="#DEDEDE"/>
<path fill-rule="evenodd" clip-rule="evenodd" d="M51.6455 12.6755C52.0028 9.89799 49.9243 7.71651 48.6354 6.68066C47.1499 8.39806 46.9191 12.899 49.2495 14.794C47.9489 15.9492 45.2085 16.9962 42.4023 16.9962H8.24435C7.97163 19.9255 8.48583 22.623 9.66036 24.9317L10.0489 25.6427C10.2949 26.0599 10.5638 26.4633 10.8542 26.851C12.2586 26.9412 13.5534 26.9722 14.738 26.9461H14.7384C17.0663 26.8948 18.9657 26.6198 20.4053 26.121C20.5071 26.0893 20.6171 26.0985 20.7123 26.1465C20.8074 26.1946 20.8801 26.2778 20.915 26.3785C20.9499 26.4792 20.9443 26.5895 20.8993 26.6861C20.8544 26.7827 20.7736 26.8581 20.674 26.8962C20.4824 26.9629 20.2829 27.0249 20.0769 27.0838H20.0762C18.9427 27.4076 17.7271 27.6253 16.1589 27.722C16.2521 27.7237 16.0619 27.736 16.0614 27.736C16.0081 27.7395 15.9409 27.7472 15.8873 27.75C15.2701 27.7847 14.6039 27.792 13.9229 27.792C13.1779 27.792 12.4444 27.778 11.6241 27.736L11.6032 27.75C14.4492 30.9489 18.8993 32.8675 24.4776 32.8675C36.2831 32.8675 46.2965 27.6342 50.7308 15.8853C53.8766 16.2082 56.9 15.4059 58.2752 12.7212C56.0846 11.4571 53.2675 11.8601 51.6455 12.6755Z" fill="#22A0C8"/>
<path fill-rule="evenodd" clip-rule="evenodd" d="M51.6454 12.6755C52.0028 9.89799 49.9243 7.71651 48.6353 6.68066C47.1499 8.39806 46.9191 12.899 49.2495 14.794C47.9489 15.9492 45.2085 16.9962 42.4023 16.9962H10.2671C10.1277 21.4823 11.7924 24.8875 14.7377 26.9461H14.7384C17.0663 26.8948 18.9657 26.6198 20.4053 26.121C20.507 26.0893 20.6171 26.0985 20.7123 26.1465C20.8074 26.1946 20.8801 26.2778 20.915 26.3785C20.9499 26.4792 20.9443 26.5895 20.8993 26.6861C20.8543 26.7827 20.7735 26.8581 20.674 26.8962C20.4824 26.9629 20.2829 27.0249 20.0768 27.0838H20.0761C18.9426 27.4076 17.6227 27.6533 16.0544 27.75C16.054 27.75 16.0164 27.7139 16.016 27.7139C20.0337 29.7749 25.8593 29.7674 32.5385 27.2018C40.0276 24.3245 46.9967 18.8432 51.8592 12.5738C51.786 12.6069 51.7147 12.6407 51.6454 12.6755Z" fill="#37B1D9"/>
<path fill-rule="evenodd" clip-rule="evenodd" d="M8.30841 20.5547C8.52052 22.1238 8.97971 23.593 9.66032 24.9312L10.0489 25.6421C10.2949 26.0594 10.5637 26.4628 10.8542 26.8504C12.2588 26.9406 13.5536 26.9716 14.7384 26.9455C17.0663 26.8942 18.9657 26.6192 20.4052 26.1204C20.507 26.0887 20.6171 26.0979 20.7122 26.1459C20.8074 26.194 20.8801 26.2772 20.915 26.3779C20.9499 26.4786 20.9443 26.5889 20.8993 26.6855C20.8543 26.7822 20.7735 26.8575 20.674 26.8956C20.4824 26.9623 20.2829 27.0243 20.0768 27.0833H20.0761C18.9426 27.407 17.6296 27.6387 16.0614 27.7357C16.0076 27.7389 15.9136 27.7396 15.8593 27.7427C15.2426 27.7772 14.5832 27.7984 13.9018 27.7984C13.1571 27.7984 12.3954 27.7842 11.5756 27.7424C14.4216 30.9414 18.8993 32.8669 24.4775 32.8669C34.5843 32.8669 43.3773 29.0307 48.4808 20.5547H8.30841Z" fill="#1B81A5"/>
<path fill-rule="evenodd" clip-rule="evenodd" d="M10.5745 20.5547C11.1787 23.3098 12.6306 25.4726 14.7384 26.9455C17.0663 26.8942 18.9657 26.6192 20.4053 26.1204C20.507 26.0887 20.6171 26.0979 20.7123 26.1459C20.8074 26.194 20.8801 26.2772 20.915 26.3779C20.9499 26.4786 20.9443 26.5889 20.8993 26.6855C20.8543 26.7822 20.7736 26.8575 20.674 26.8956C20.4824 26.9623 20.2829 27.0243 20.0768 27.0833H20.0761C18.9426 27.407 17.6019 27.6387 16.0335 27.7357C20.051 29.7962 25.8598 29.7666 32.5385 27.2012C36.5788 25.6488 40.4674 23.338 43.9561 20.5547H10.5745Z" fill="#1D91B4"/>
<path fill-rule="evenodd" clip-rule="evenodd" d="M12.8805 11.5486H17.4998V16.1679H12.8805V11.5486ZM13.2653 11.9336H13.6299V15.7831H13.2653V11.9336ZM13.9506 11.9336H14.3298V15.7831H13.9508V11.9336H13.9506ZM14.6503 11.9336H15.0296V15.7831H14.6503V11.9336ZM15.3505 11.9336H15.7295V15.7831H15.3505V11.9336ZM16.0505 11.9336H16.4295V15.7831H16.0505V11.9336ZM16.7502 11.9336H17.115V15.7831H16.7502V11.9336ZM18.2103 6.21875H22.8299V10.8379H18.2101V6.21875H18.2103ZM18.5954 6.60381H18.9597V10.453H18.5954V6.60381ZM19.2806 6.60381H19.6596V10.453H19.2809V6.60381H19.2806ZM19.9804 6.60381H20.3594V10.453H19.9804V6.60381ZM20.6803 6.60381H21.0593V10.453H20.6803V6.60381ZM21.3803 6.60381H21.7595V10.453H21.3803V6.60381ZM22.08 6.60381H22.4451V10.453H22.08V6.60381Z" fill="#23A3C2"/>
<path fill-rule="evenodd" clip-rule="evenodd" d="M18.2103 11.5479H22.8298V16.1672H18.21V11.5479H18.2103ZM18.5953 11.9329H18.9596V15.7824H18.5953V11.9329ZM19.2806 11.9329H19.6596V15.7824H19.2808V11.9329H19.2806ZM19.9803 11.9329H20.3593V15.7824H19.9803V11.9329ZM20.6803 11.9329H21.0593V15.7824H20.6803V11.9329ZM21.3803 11.9329H21.7595V15.7824H21.3803V11.9329ZM22.08 11.9329H22.445V15.7824H22.08V11.9329Z" fill="#34BBDE"/>
<path fill-rule="evenodd" clip-rule="evenodd" d="M23.5403 11.5479H28.1597V16.1672H23.5403V11.5479ZM23.9252 11.9329H24.2895V15.7824H23.9252V11.9329ZM24.6105 11.9329H24.9895V15.7824H24.6105V11.9329ZM25.3104 11.9329H25.6894V15.7824H25.3104V11.9329ZM26.0104 11.9329H26.3894V15.7824H26.0104V11.9329ZM26.7101 11.9329H27.0896V15.7824H26.7101V11.9329ZM27.4101 11.9329H27.7746V15.7824H27.4101V11.9329Z" fill="#23A3C2"/>
<path fill-rule="evenodd" clip-rule="evenodd" d="M23.5403 6.21875H28.1597V10.8379H23.5403V6.21875ZM23.9252 6.60381H24.2895V10.453H23.9252V6.60381ZM24.6105 6.60381H24.9895V10.453H24.6105V6.60381ZM25.3104 6.60381H25.6894V10.453H25.3104V6.60381ZM26.0104 6.60381H26.3894V10.453H26.0104V6.60381ZM26.7101 6.60381H27.0896V10.453H26.7101V6.60381ZM27.4101 6.60381H27.7746V10.453H27.4101V6.60381ZM28.8702 11.5486H33.4895V16.1679H28.8702V11.5486ZM29.2552 11.9336H29.6195V15.7831H29.2552V11.9336ZM29.9405 11.9336H30.3195V15.7831H29.9405V11.9336ZM30.6402 11.9336H31.0192V15.7831H30.6402V11.9336ZM31.3402 11.9336H31.7194V15.7831H31.3402V11.9336ZM32.0402 11.9336H32.4194V15.7831H32.0402V11.9336ZM32.7401 11.9336H33.1047V15.7831H32.7401V11.9336Z" fill="#34BBDE"/>
<path fill-rule="evenodd" clip-rule="evenodd" d="M28.8701 6.21875H33.4895V10.8379H28.8701V6.21875ZM29.2552 6.60381H29.6195V10.453H29.2552V6.60381ZM29.9405 6.60381H30.3195V10.453H29.9405V6.60381ZM30.6402 6.60381H31.0192V10.453H30.6402V6.60381ZM31.3402 6.60381H31.7194V10.453H31.3402V6.60381ZM32.0401 6.60381H32.4194V10.453H32.0401V6.60381ZM32.7401 6.60381H33.1046V10.453H32.7401V6.60381Z" fill="#23A3C2"/>
<path fill-rule="evenodd" clip-rule="evenodd" d="M28.8701 0.888672H33.4895V5.50849H28.8701V0.888672ZM29.2552 1.2735H29.6195V5.12319H29.2552V1.27327V1.2735ZM29.9405 1.2735H30.3195V5.12319H29.9405V1.27327V1.2735ZM30.6402 1.2735H31.0192V5.12319H30.6402V1.27327V1.2735ZM31.3402 1.2735H31.7194V5.12319H31.3402V1.27327V1.2735ZM32.0401 1.2735H32.4194V5.12319H32.0401V1.27327V1.2735ZM32.7401 1.2735H33.1046V5.12319H32.7401V1.27327V1.2735Z" fill="#34BBDE"/>
<path fill-rule="evenodd" clip-rule="evenodd" d="M34.2 11.5479H38.8193V16.1672H34.2V11.5479ZM34.5845 11.9329H34.9493V15.7824H34.5848V11.9329H34.5845ZM35.2698 11.9329H35.6491V15.7824H35.2701V11.9329H35.2698ZM35.97 11.9329H36.3493V15.7824H35.97V11.9329ZM36.6698 11.9329H37.049V15.7824H36.6698V11.9329ZM37.37 11.9329H37.749V15.7824H37.37V11.9329ZM38.0697 11.9329H38.4342V15.7824H38.0697V11.9329Z" fill="#23A3C2"/>
<path fill-rule="evenodd" clip-rule="evenodd" d="M22.5405 23.6564C22.7094 23.6541 22.8769 23.6854 23.0335 23.7485C23.1901 23.8115 23.3327 23.9051 23.4528 24.0236C23.573 24.1422 23.6684 24.2835 23.7335 24.4393C23.7986 24.595 23.8321 24.7622 23.8321 24.931C23.832 25.0998 23.7985 25.267 23.7333 25.4227C23.6682 25.5785 23.5727 25.7197 23.4525 25.8382C23.3323 25.9568 23.1897 26.0503 23.0331 26.1133C22.8765 26.1763 22.7089 26.2075 22.5401 26.2052C22.2051 26.2006 21.8853 26.0643 21.6501 25.8257C21.4148 25.5872 21.283 25.2656 21.283 24.9305C21.2831 24.5955 21.4151 24.274 21.6504 24.0355C21.8858 23.797 22.2055 23.6608 22.5405 23.6564Z" fill="#D3ECEC"/>
<path fill-rule="evenodd" clip-rule="evenodd" d="M22.5406 24.0185C22.6572 24.0185 22.7683 24.0404 22.8709 24.0803C22.8001 24.1214 22.7449 24.1846 22.7136 24.2603C22.6824 24.3359 22.6769 24.4197 22.6981 24.4988C22.7193 24.5778 22.7659 24.6477 22.8307 24.6976C22.8956 24.7475 22.9751 24.7747 23.0569 24.7749C23.1979 24.7749 23.3203 24.6968 23.3837 24.5812C23.4588 24.762 23.4737 24.9622 23.4262 25.1522C23.3788 25.3421 23.2715 25.5118 23.1203 25.6361C22.969 25.7604 22.7817 25.8328 22.5862 25.8425C22.3906 25.8522 22.1972 25.7988 22.0343 25.6901C21.8715 25.5814 21.7479 25.4232 21.6818 25.2389C21.6158 25.0546 21.6108 24.8539 21.6675 24.6665C21.7243 24.4791 21.8398 24.315 21.997 24.1983C22.1542 24.0816 22.3448 24.0186 22.5406 24.0185ZM0 21.0161H59.2807C57.9901 20.6888 55.197 20.2464 55.6576 18.5547C53.3104 21.2706 47.6503 20.4602 46.2217 19.1211C44.6311 21.4282 35.3705 20.5511 34.7246 18.7537C32.7303 21.0942 26.5509 21.0942 24.5566 18.7537C23.9102 20.5511 14.6499 21.4282 13.059 19.1209C11.6307 20.4602 5.9708 21.2706 3.6236 18.5549C4.08418 20.2464 1.29108 20.6888 0 21.0163" fill="#364548"/>
<path fill-rule="evenodd" clip-rule="evenodd" d="M25.9281 32.8399C22.7721 31.3423 21.04 29.3063 20.0762 27.084C18.9038 27.4185 17.4947 27.6324 15.8573 27.7243C15.2405 27.7588 14.5916 27.7765 13.911 27.7765C13.126 27.7765 12.2987 27.7532 11.4302 27.7073C14.3245 30.5999 17.8849 32.8268 24.4776 32.8674C24.9643 32.8674 25.4473 32.8581 25.9281 32.8399Z" fill="#BDD9D7"/>
<path fill-rule="evenodd" clip-rule="evenodd" d="M21.2483 29.1352C20.8118 28.5424 20.3883 27.7975 20.0768 27.084C18.9044 27.4189 17.4949 27.6329 15.8572 27.725C16.9821 28.3354 18.5907 28.9011 21.2486 29.1352" fill="#D3ECEC"/>
</svg>
