<svg width="70" height="70" viewBox="0 0 70 70" fill="none" xmlns="http://www.w3.org/2000/svg">
<path d="M51.7383 27.3911H32.7167V36.5215H51.7383V27.3911Z" fill="#DEDEDE"/>
<path d="M51.7383 13.6958H32.7167V22.8262H51.7383V13.6958Z" fill="#DEDEDE"/>
<path d="M28.1515 13.6958H18.2603V36.5216H28.1515V13.6958Z" fill="#DEDEDE"/>
<path d="M49.4181 65.5517L37.2826 61.5065V54.7822H32.7171V61.5068L20.5823 65.5516C19.386 65.9499 18.741 67.2427 19.1394 68.4383C19.5387 69.6397 20.8385 70.2805 22.0269 69.8819L35.0002 65.5575L47.9735 69.8819C49.1625 70.2807 50.4619 69.6387 50.861 68.4383C51.2593 67.243 50.6144 65.9499 49.4181 65.5517Z" fill="#DEDEDE"/>
<path d="M67.7168 45.6518H65.4343V4.5652H67.7168C68.977 4.5652 69.9993 3.54349 69.9993 2.28267C69.9993 1.0217 68.977 0 67.7168 0C38.3684 0 32.2443 0 2.28253 0C1.02239 0 0 1.0217 0 2.28253C0 3.54349 1.02239 4.56506 2.28253 4.56506H4.56506V45.6517H2.28253C1.02239 45.6517 0 46.6734 0 47.9342C0 49.1952 1.02239 50.2167 2.28253 50.2167C9.97983 50.2167 60.6171 50.2167 67.7167 50.2167C68.9768 50.2167 69.9992 49.195 69.9992 47.9342C69.9993 46.6735 68.977 45.6518 67.7168 45.6518ZM56.3039 38.804C56.3039 40.0649 55.2815 41.0865 54.0214 41.0865H15.9781C14.718 41.0865 13.6956 40.0648 13.6956 38.804V11.4129C13.6956 10.152 14.718 9.13039 15.9781 9.13039H54.0212C55.2814 9.13039 56.3038 10.1521 56.3038 11.4129V38.804H56.3039Z" fill="#DEDEDE"/>
</svg>
