<svg width="50" height="50" viewBox="0 0 50 50" fill="none" xmlns="http://www.w3.org/2000/svg">
<path fill-rule="evenodd" clip-rule="evenodd" d="M10.4167 1.04199C15.5945 1.04199 19.7917 5.2392 19.7917 10.417C19.7917 15.5948 15.5945 19.792 10.4167 19.792C5.23889 19.792 1.04169 15.5948 1.04169 10.417C1.04169 5.2392 5.23889 1.04199 10.4167 1.04199Z" stroke="#00B0FF" stroke-width="2" stroke-linecap="round" stroke-linejoin="round"/>
<path fill-rule="evenodd" clip-rule="evenodd" d="M23.9583 19.792C27.4101 19.792 30.2083 22.5902 30.2083 26.042C30.2083 29.4938 27.4101 32.292 23.9583 32.292C20.5065 32.292 17.7083 29.4938 17.7083 26.042C17.7083 22.5902 20.5065 19.792 23.9583 19.792Z" stroke="#00B0FF" stroke-width="2" stroke-linecap="round" stroke-linejoin="round"/>
<path fill-rule="evenodd" clip-rule="evenodd" d="M23.9583 36.458C27.4101 36.458 30.2083 39.2562 30.2083 42.708C30.2083 46.1598 27.4101 48.958 23.9583 48.958C20.5065 48.958 17.7083 46.1598 17.7083 42.708C17.7083 39.2562 20.5065 36.458 23.9583 36.458Z" stroke="#00B0FF" stroke-width="2" stroke-linecap="round" stroke-linejoin="round"/>
<path fill-rule="evenodd" clip-rule="evenodd" d="M42.7083 36.458C46.1601 36.458 48.9583 39.2562 48.9583 42.708C48.9583 46.1598 46.1601 48.958 42.7083 48.958C39.2565 48.958 36.4583 46.1598 36.4583 42.708C36.4583 39.2562 39.2565 36.458 42.7083 36.458Z" stroke="#00B0FF" stroke-width="2" stroke-linecap="round" stroke-linejoin="round"/>
<path d="M26.0797 24.5908L22.8826 27.7836L21.3298 26.2363" stroke="#00B0FF" stroke-width="2" stroke-linecap="round" stroke-linejoin="round"/>
<path fill-rule="evenodd" clip-rule="evenodd" d="M42.7083 19.792C46.1601 19.792 48.9583 22.5902 48.9583 26.042C48.9583 29.4938 46.1601 32.292 42.7083 32.292C39.2565 32.292 36.4583 29.4938 36.4583 26.042C36.4583 22.5902 39.2565 19.792 42.7083 19.792Z" stroke="#00B0FF" stroke-width="2" stroke-linecap="round" stroke-linejoin="round"/>
<path d="M44.8297 24.5908L41.6326 27.7836L40.0798 26.2363" stroke="#00B0FF" stroke-width="2" stroke-linecap="round" stroke-linejoin="round"/>
<path d="M7.29169 7.09608C7.29169 6.27625 8.19491 5.77774 8.88856 6.21471L14.2148 9.56994C14.8662 9.98025 14.8627 10.931 14.2086 11.3366L8.88228 14.6392C8.18835 15.0694 7.29169 14.5703 7.29169 13.7539V7.09608Z" stroke="#00B0FF" stroke-width="2" stroke-linecap="round" stroke-linejoin="round"/>
<path d="M9.375 19.792V35.417C9.375 39.4441 12.6846 42.7087 16.6667 42.7087H17.7083" stroke="#00B0FF" stroke-width="2" stroke-linecap="round" stroke-linejoin="round"/>
<path d="M17.6552 27.0831C18.2305 27.0831 18.6969 26.6168 18.6969 26.0415C18.6969 25.4661 18.2305 24.9998 17.6552 24.9998V27.0831ZM8.33331 19.8281C8.33331 23.8349 11.5815 27.0831 15.5883 27.0831V24.9998C12.7321 24.9998 10.4166 22.6844 10.4166 19.8281H8.33331ZM15.5883 27.0831H17.6552V24.9998H15.5883V27.0831Z" fill="#00B0FF"/>
<path d="M30.2653 26.042H36.4576" stroke="#00B0FF" stroke-width="2" stroke-linecap="round" stroke-linejoin="round"/>
<path fill-rule="evenodd" clip-rule="evenodd" d="M21.875 41.667C22.4498 41.667 22.9166 42.1339 22.9166 42.7087C22.9166 43.2843 22.4498 43.7503 21.875 43.7503C21.3002 43.7503 20.8333 43.2843 20.8333 42.7087C20.8333 42.1339 21.3002 41.667 21.875 41.667Z" fill="#00B0FF"/>
<path fill-rule="evenodd" clip-rule="evenodd" d="M26.0417 41.667C26.6165 41.667 27.0833 42.1339 27.0833 42.7087C27.0833 43.2843 26.6165 43.7503 26.0417 43.7503C25.4669 43.7503 25 43.2843 25 42.7087C25 42.1339 25.4669 41.667 26.0417 41.667Z" fill="#00B0FF"/>
<path d="M35.4217 42.7158L34.3669 42.7502" stroke="#00B0FF" stroke-width="2" stroke-linecap="round"/>
</svg>
