<svg width="52" height="50" viewBox="0 0 52 50" fill="none" xmlns="http://www.w3.org/2000/svg">
<path d="M25.7576 0C11.5265 0 0 11.478 0 25.6347C0 36.9632 7.37954 46.5698 17.6117 49.9557C18.8996 50.1971 19.3718 49.4046 19.3718 48.7231C19.3718 48.1143 19.3504 46.5014 19.3396 44.3652C12.1747 45.9118 10.6636 40.9259 10.6636 40.9259C9.49167 37.9672 7.79811 37.1768 7.79811 37.1768C5.4649 35.5874 7.97841 35.6195 7.97841 35.6195C10.5649 35.7989 11.9236 38.2599 11.9236 38.2599C14.2203 42.1798 17.953 41.0476 19.4255 40.3918C19.6573 38.7341 20.3206 37.604 21.0568 36.9632C15.3365 36.3223 9.32424 34.1177 9.32424 24.2953C9.32424 21.4969 10.3223 19.2111 11.9751 17.4167C11.6854 16.7694 10.816 14.1632 12.2005 10.632C12.2005 10.632 14.3577 9.94415 19.2838 13.2596C21.3444 12.6892 23.5338 12.4072 25.7232 12.3944C27.9126 12.4072 30.102 12.6892 32.1626 13.2596C37.0566 9.94415 39.2138 10.632 39.2138 10.632C40.5982 14.1632 39.7289 16.7694 39.4713 17.4167C41.1134 19.2111 42.1115 21.4969 42.1115 24.2953C42.1115 34.1433 36.0907 36.3116 30.3596 36.9418C31.2611 37.7108 32.0982 39.2831 32.0982 41.6842C32.0982 45.115 32.066 47.8707 32.066 48.7039C32.066 49.3768 32.5168 50.1779 33.8369 49.9215C44.142 46.5591 51.5151 36.9461 51.5151 25.6347C51.5151 11.478 39.9822 0 25.7576 0Z" fill="#DEDEDE"/>
</svg>
