<svg width="45" height="50" viewBox="0 0 45 50" fill="none" xmlns="http://www.w3.org/2000/svg">
<path d="M4.01176 44.9996L0 0H44.0623L40.0457 45.0032L22.0204 50L4.01176 44.9996Z" fill="#E34E26"/>
<path d="M22.0311 3.67773V46.1772L36.6067 42.1369L40.0408 3.67773H22.0311Z" fill="#EF662A"/>
<path d="M8.20813 9.19727L9.6958 25.8874H28.8253L28.1833 33.046L22.024 34.7112L15.8765 33.0484L15.4654 28.4519H9.92545L10.7176 37.3127L22.0227 40.4525L33.3421 37.3127L34.8596 20.3689H14.7437L14.2386 14.7169H35.343H35.3598L35.8542 9.19727H8.20813Z" fill="white"/>
<path d="M22.0312 9.19727H8.20813L9.6958 25.8874H22.0312V20.3689H14.7437L14.2386 14.7169H22.0312V9.19727Z" fill="#EBEBEB"/>
<path d="M22.0311 34.7091L22.024 34.7115L15.8764 33.0487L15.4654 28.4521H9.92542L10.7176 37.3129L22.0227 40.4527L22.0311 40.4504V34.7091Z" fill="#EBEBEB"/>
</svg>
