<svg width="70" height="70" viewBox="0 0 70 70" fill="none" xmlns="http://www.w3.org/2000/svg">
<path d="M61.25 52.5C59.1216 52.5 57.2425 53.3553 55.7309 54.6109L42.3916 45.0909C43.2381 43.3475 43.75 41.4334 43.75 39.375C43.75 36.5466 42.8269 33.9325 41.3066 31.7953L56.91 16.1831C58.2072 16.9444 59.6356 17.5 61.25 17.5C66.0866 17.5 70 13.5866 70 8.75C70 3.91344 66.0866 0 61.25 0C56.4134 0 52.5 3.91344 52.5 8.75C52.5 10.3644 53.0556 11.7928 53.8169 13.09L38.2134 28.7022C36.0588 27.1644 33.4622 26.25 30.625 26.25C25.6178 26.25 21.3106 29.0959 19.0969 33.2303L8.56188 29.7106C8.13531 27.7463 6.46844 26.25 4.375 26.25C1.95781 26.25 0 28.2078 0 30.625C0 33.0422 1.95781 35 4.375 35C5.4775 35 6.45969 34.5559 7.22969 33.88L17.7056 37.3756C17.6028 38.0341 17.5 38.6925 17.5 39.375C17.5 46.62 23.38 52.5 30.625 52.5C34.23 52.5 37.5047 51.0387 39.8781 48.6806L53.1322 58.1394C52.7559 59.1128 52.5 60.1475 52.5 61.25C52.5 66.0778 56.4134 70 61.25 70C66.0866 70 70 66.0778 70 61.25C70 56.4222 66.0866 52.5 61.25 52.5Z" fill="#DEDEDE"/>
</svg>
