<svg width="70" height="70" viewBox="0 0 70 70" fill="none" xmlns="http://www.w3.org/2000/svg">
<path d="M67.8991 56.0225C67.2586 55.9023 66.6518 56.3037 66.5224 56.9336C65.2204 63.3527 60.17 67.6658 53.9575 67.6658C48.0903 67.6658 42.936 63.8158 41.1836 58.3324H46.6669V55.999H37.3336V65.3324H39.6669V60.8431C42.1962 66.3043 47.7332 69.9991 53.9574 69.9991C61.312 69.9991 67.2807 64.9357 68.8102 57.3991C68.9385 56.7668 68.5301 56.1508 67.8991 56.0225Z" fill="#DEDEDE"/>
<path d="M67.6666 47.0264C65.0417 41.8302 59.8452 38.5005 53.9572 38.5005C46.83 38.5005 40.4927 43.1637 38.5467 49.8404C38.367 50.46 38.7217 51.1063 39.3412 51.2871C39.9607 51.4668 40.6082 51.111 40.7866 50.4926C42.4176 44.8962 47.9558 40.8338 53.9572 40.8338C59.283 40.8338 63.9462 44.0597 66.0088 49.0005H60.6666V51.3338H70V42.0004H67.6666V47.0264Z" fill="#DEDEDE"/>
<path d="M8.16666 5.8335C6.87982 5.8335 5.83331 6.88001 5.83331 8.16684C5.83331 9.45368 6.87982 10.5002 8.16666 10.5002C9.4535 10.5002 10.5 9.45368 10.5 8.16684C10.5 6.88001 9.4535 5.8335 8.16666 5.8335Z" fill="#DEDEDE"/>
<path d="M29.1667 5.8335C27.8798 5.8335 26.8333 6.88001 26.8333 8.16684C26.8333 9.45368 27.8798 10.5002 29.1667 10.5002C30.4535 10.5002 31.5 9.45368 31.5 8.16684C31.5 6.88001 30.4535 5.8335 29.1667 5.8335Z" fill="#DEDEDE"/>
<path d="M18.6667 5.8335C17.3798 5.8335 16.3333 6.88001 16.3333 8.16684C16.3333 9.45368 17.3798 10.5002 18.6667 10.5002C19.9535 10.5002 21 9.45368 21 8.16684C21 6.88001 19.9535 5.8335 18.6667 5.8335Z" fill="#DEDEDE"/>
<path d="M66.6493 0H3.35067C1.5027 0 0 1.5027 0 3.35067V13.9999H70V3.35067C70 1.5027 68.4973 0 66.6493 0ZM8.16665 12.8333C5.59297 12.8333 3.49995 10.7403 3.49995 8.16665C3.49995 5.59297 5.59297 3.49995 8.16665 3.49995C10.7403 3.49995 12.8333 5.59297 12.8333 8.16665C12.8333 10.7403 10.7403 12.8333 8.16665 12.8333ZM18.6666 12.8333C16.093 12.8333 13.9999 10.7403 13.9999 8.16665C13.9999 5.59297 16.093 3.49995 18.6666 3.49995C21.2403 3.49995 23.3333 5.59297 23.3333 8.16665C23.3333 10.7403 21.2403 12.8333 18.6666 12.8333ZM29.1666 12.8333C26.593 12.8333 24.4999 10.7403 24.4999 8.16665C24.4999 5.59297 26.593 3.49995 29.1666 3.49995C31.7403 3.49995 33.8333 5.59297 33.8333 8.16665C33.8333 10.7403 31.7403 12.8333 29.1666 12.8333Z" fill="#DEDEDE"/>
<path d="M0 65.8083C0 68.1207 1.87952 70.0002 4.19188 70.0002H45.1021C43.9412 69.3457 42.8644 68.5559 41.8752 67.6669H34.9999V53.6668H36.1665C36.1665 52.8653 35.7664 51.0418 36.3065 49.1891C38.5406 41.5217 45.7985 36.1667 53.9569 36.1667C58.2538 36.1667 62.225 37.0266 65.333 39.6667H69.9997V16.3335H0V65.8083ZM24.4999 61.8334H22.1666C21.5214 61.8334 21 61.3119 21 60.6668C21 60.0216 21.5215 59.5002 22.1666 59.5002H24.4999C25.1452 59.5002 25.6665 60.0217 25.6665 60.6668C25.6667 61.312 25.1452 61.8334 24.4999 61.8334ZM22.1666 31.5002H24.4999C25.1452 31.5002 25.6665 32.0217 25.6665 32.6668C25.6665 33.312 25.145 33.8334 24.4999 33.8334H22.1666C21.5214 33.8334 21 33.3119 21 32.6668C21 32.0217 21.5215 31.5002 22.1666 31.5002ZM12.8333 29.1668C12.1881 29.1668 11.6667 28.6453 11.6667 28.0002C11.6667 27.355 12.1883 26.8336 12.8333 26.8336H29.1666C29.8119 26.8336 30.3332 27.3551 30.3332 28.0002C30.3332 28.6455 29.8117 29.1668 29.1666 29.1668H12.8333ZM29.1666 40.8334C29.8119 40.8334 30.3332 41.3549 30.3332 42C30.3332 42.6453 29.8117 43.1666 29.1666 43.1666H12.8333C12.1881 43.1666 11.6667 42.6451 11.6667 42C11.6667 41.3548 12.1883 40.8334 12.8333 40.8334H29.1666ZM22.1666 45.5001H24.4999C25.1452 45.5001 25.6665 46.0216 25.6665 46.6667C25.6665 47.312 25.145 47.8333 24.4999 47.8333H22.1666C21.5214 47.8333 21 47.3118 21 46.6667C21 46.0216 21.5215 45.5001 22.1666 45.5001ZM29.1666 54.8335C29.8119 54.8335 30.3332 55.355 30.3332 56.0001C30.3332 56.6453 29.8117 57.1667 29.1666 57.1667H12.8333C12.1881 57.1667 11.6667 56.6452 11.6667 56.0001C11.6667 55.3549 12.1883 54.8335 12.8333 54.8335H29.1666ZM31.5 61.8334H29.1666C28.5214 61.8334 28 61.3119 28 60.6668C28 60.0216 28.5215 59.5002 29.1666 59.5002H31.5C32.1452 59.5002 32.6666 60.0217 32.6666 60.6668C32.6666 61.312 32.1452 61.8334 31.5 61.8334ZM32.6666 52.5002H26.8333C26.1881 52.5002 25.6667 51.9787 25.6667 51.3336C25.6667 50.6883 26.1882 50.167 26.8333 50.167H32.6666C33.3118 50.167 33.8332 50.6885 33.8332 51.3336C33.8333 51.9787 33.3118 52.5002 32.6666 52.5002ZM34.9999 47.8335H29.1666C28.5214 47.8335 28 47.312 28 46.6669C28 46.0216 28.5215 45.5003 29.1666 45.5003H34.9999C35.6452 45.5003 36.1665 46.0218 36.1665 46.6669C36.1667 47.312 35.6452 47.8335 34.9999 47.8335ZM36.1667 43.1668H33.8333C33.1881 43.1668 32.6667 42.6453 32.6667 42.0002C32.6667 41.355 33.1882 40.8336 33.8333 40.8336H36.1667C36.8119 40.8336 37.3333 41.3551 37.3333 42.0002C37.3333 42.6454 36.8118 43.1668 36.1667 43.1668ZM38.5 38.5002H26.8334C26.1882 38.5002 25.6668 37.9787 25.6668 37.3336C25.6668 36.6884 26.1883 36.167 26.8334 36.167H38.5C39.1452 36.167 39.6666 36.6885 39.6666 37.3336C39.6666 37.9787 39.1451 38.5002 38.5 38.5002ZM45.4999 33.8335H29.1666C28.5214 33.8335 28 33.312 28 32.6669C28 32.0217 28.5215 31.5003 29.1666 31.5003H45.4999C46.1451 31.5003 46.6665 32.0218 46.6665 32.6669C46.6667 33.312 46.1451 33.8335 45.4999 33.8335ZM52.5 28.0002C52.5 28.6455 51.9784 29.1668 51.3334 29.1668H33.8333C33.1881 29.1668 32.6667 28.6453 32.6667 28.0002C32.6667 27.355 33.1882 26.8336 33.8333 26.8336H51.3334C51.9784 26.8335 52.5 27.355 52.5 28.0002ZM43.1666 22.1668H45.4999C46.1451 22.1668 46.6665 22.6883 46.6665 23.3334C46.6665 23.9786 46.145 24.5 45.4999 24.5H43.1666C42.5214 24.5 42 23.9785 42 23.3334C42 22.6883 42.5215 22.1668 43.1666 22.1668ZM26.8333 22.1668H38.4999C39.1451 22.1668 39.6665 22.6883 39.6665 23.3334C39.6665 23.9786 39.145 24.5 38.4999 24.5H26.8333C26.1881 24.5 25.6667 23.9785 25.6667 23.3334C25.6667 22.6883 26.1882 22.1668 26.8333 22.1668ZM7.00004 22.1668H22.1667C22.812 22.1668 23.3333 22.6883 23.3333 23.3334C23.3333 23.9786 22.8118 24.5 22.1667 24.5H7.00004C6.35482 24.5 5.83344 23.9785 5.83344 23.3334C5.8333 22.6883 6.35482 22.1668 7.00004 22.1668ZM7.00004 26.8335H8.16665C8.81187 26.8335 9.33325 27.355 9.33325 28.0001C9.33325 28.6453 8.81173 29.1667 8.16665 29.1667H7.00004C6.35482 29.1667 5.83344 28.6452 5.83344 28.0001C5.8333 27.355 6.35482 26.8335 7.00004 26.8335ZM7.00004 31.5002H17.5C18.1453 31.5002 18.6666 32.0217 18.6666 32.6668C18.6666 33.312 18.1451 33.8334 17.5 33.8334H7.00004C6.35482 33.8334 5.83344 33.3119 5.83344 32.6668C5.8333 32.0217 6.35482 31.5002 7.00004 31.5002ZM7.00004 36.1669H22.1667C22.812 36.1669 23.3333 36.6884 23.3333 37.3335C23.3333 37.9787 22.8118 38.5001 22.1667 38.5001H7.00004C6.35482 38.5001 5.83344 37.9786 5.83344 37.3335C5.8333 36.6884 6.35482 36.1669 7.00004 36.1669ZM7.00004 40.8334H8.16665C8.81187 40.8334 9.33325 41.3549 9.33325 42C9.33325 42.6453 8.81173 43.1666 8.16665 43.1666H7.00004C6.35482 43.1666 5.83344 42.6451 5.83344 42C5.8333 41.3549 6.35482 40.8334 7.00004 40.8334ZM7.00004 45.5001H17.5C18.1453 45.5001 18.6666 46.0216 18.6666 46.6667C18.6666 47.312 18.1451 47.8333 17.5 47.8333H7.00004C6.35482 47.8333 5.83344 47.3118 5.83344 46.6667C5.8333 46.0216 6.35482 45.5001 7.00004 45.5001ZM7.00004 50.1668H22.1667C22.812 50.1668 23.3333 50.6883 23.3333 51.3334C23.3333 51.9787 22.8118 52.5 22.1667 52.5H7.00004C6.35482 52.5 5.83344 51.9785 5.83344 51.3334C5.8333 50.6883 6.35482 50.1668 7.00004 50.1668ZM7.00004 54.8335H8.16665C8.81187 54.8335 9.33325 55.355 9.33325 56.0001C9.33325 56.6453 8.81173 57.1667 8.16665 57.1667H7.00004C6.35482 57.1667 5.83344 56.6452 5.83344 56.0001C5.8333 55.355 6.35482 54.8335 7.00004 54.8335ZM7.00004 59.5002H17.5C18.1453 59.5002 18.6666 60.0217 18.6666 60.6668C18.6666 61.312 18.1451 61.8334 17.5 61.8334H7.00004C6.35482 61.8334 5.83344 61.3119 5.83344 60.6668C5.8333 60.0216 6.35482 59.5002 7.00004 59.5002Z" fill="#DEDEDE"/>
</svg>
