<svg width="46" height="50" viewBox="0 0 46 50" fill="none" xmlns="http://www.w3.org/2000/svg">
<path d="M42.4361 24.6097C42.4361 22.0351 40.3545 19.9535 37.7799 19.9535C37.6155 19.9535 37.4512 19.9672 37.2868 19.9809L43.6824 1.13672H16.5254L22.9072 19.9672C22.8114 19.9672 22.7155 19.9535 22.6196 19.9535C20.045 19.9535 17.9634 22.0351 17.9634 24.6097C17.9634 26.6914 19.3192 28.4443 21.2091 29.0469C20.223 30.7724 18.9631 32.32 17.5525 33.6484C15.6215 35.4698 13.4167 36.8393 11.0338 37.702C8.19892 36.2367 6.85683 32.991 8.06198 30.1562C8.19892 29.8412 8.33587 29.5125 8.47282 29.1838C10.5271 28.7045 12.0609 26.8557 12.0609 24.6508C12.0609 22.0762 9.97926 19.9946 7.40462 19.9946C4.82998 19.9946 2.74836 22.0762 2.74836 24.6508C2.74836 26.2257 3.52897 27.6226 4.73412 28.458C3.58375 31.0737 1.88558 33.8264 1.36518 37.0036C0.735215 40.8108 1.36518 44.8645 4.66565 47.1515C12.3485 52.4788 20.675 43.851 29.4671 41.6872C32.658 40.9066 36.1502 41.0299 38.9576 39.4002C41.0666 38.1814 42.4498 36.1545 42.847 33.8812C43.2304 31.6352 42.6689 29.4029 41.3679 27.5952C42.0253 26.7872 42.4361 25.7464 42.4361 24.6097ZM27.2759 24.6234V24.6097C27.2759 22.9253 26.372 21.4462 25.0299 20.6245L30.1107 10.3534L35.2052 20.7341C33.959 21.5695 33.1373 22.9937 33.1373 24.6097C33.1373 24.6371 33.1373 24.6782 33.1373 24.7056L27.2759 24.6234Z" fill="#C63D14"/>
<path d="M43.5728 24.6097C43.5728 21.7885 41.5323 19.4193 38.8481 18.9263L45.2573 0H14.9368L21.3597 18.9674C18.7714 19.5426 16.8267 21.857 16.8267 24.6234C16.8267 26.6913 17.9223 28.5127 19.5657 29.5399C18.7714 30.7176 17.8402 31.8269 16.772 32.8403C15.0738 34.4426 13.1702 35.6615 11.1297 36.4695C9.07544 35.1821 8.19896 32.7445 9.10283 30.6081L9.1713 30.4437C9.21238 30.3342 9.25347 30.2383 9.30825 30.1287C11.5679 29.3344 13.1976 27.1843 13.1976 24.6645C13.1976 21.4736 10.5956 18.8715 7.40466 18.8715C4.21376 18.8715 1.61173 21.4736 1.61173 24.6645C1.61173 26.2805 2.26908 27.7321 3.33728 28.7866C3.14555 29.1975 2.94013 29.622 2.73471 30.0466C1.76237 32.046 0.653086 34.3194 0.24224 36.8392C-0.593148 41.8379 0.74895 45.8368 4.00833 48.0964C5.98039 49.4659 7.99354 50 10.0204 50C13.8276 50 17.6758 48.0827 21.4419 46.2202C24.1535 44.8781 26.9609 43.4812 29.7273 42.7965C30.7544 42.5363 31.8226 42.3856 32.9456 42.2213C35.1779 41.9063 37.4786 41.564 39.5191 40.3862C41.8884 39.0167 43.5044 36.716 43.9563 34.0866C44.3534 31.8269 43.8741 29.5535 42.7238 27.6363C43.2579 26.7461 43.5728 25.719 43.5728 24.6097ZM41.2995 24.6097C41.2995 26.5544 39.7246 28.1293 37.7799 28.1293C35.8352 28.1293 34.2603 26.5544 34.2603 24.6097C34.2603 22.665 35.8352 21.0901 37.7799 21.0901C39.7109 21.0901 41.2995 22.6787 41.2995 24.6097ZM42.0938 2.27335L36.4241 18.9811C36.1776 19.0359 35.9448 19.118 35.712 19.2002L30.1108 7.77869L24.4959 19.1317C24.2494 19.0496 24.0029 18.9811 23.7427 18.9263L18.1004 2.27335H42.0938ZM22.6197 21.0901C24.5643 21.0901 26.1393 22.665 26.1393 24.6097C26.1393 26.5544 24.5643 28.1293 22.6197 28.1293C20.675 28.1293 19.1001 26.5544 19.1001 24.6097C19.1001 22.665 20.675 21.0901 22.6197 21.0901ZM7.40466 21.1312C9.34933 21.1312 10.9242 22.7061 10.9242 24.6508C10.9242 26.5955 9.34933 28.1704 7.40466 28.1704C5.45999 28.1704 3.88508 26.5955 3.88508 24.6508C3.88508 22.7061 5.47368 21.1312 7.40466 21.1312ZM41.7103 33.6894C41.368 35.6615 40.1491 37.387 38.3688 38.4141C36.7117 39.3728 34.7259 39.6604 32.6169 39.9617C31.4939 40.126 30.3162 40.2903 29.1795 40.5779C26.1666 41.3174 23.2496 42.7691 20.4285 44.166C14.7862 46.9734 9.89713 49.3974 5.30934 46.2065C1.9404 43.8784 2.09105 39.5508 2.4882 37.1816C2.85796 34.9904 3.8303 32.9636 4.78894 31.0189C4.95328 30.6765 5.11762 30.3479 5.26826 30.0192C5.73389 30.2109 6.2406 30.3342 6.761 30.3889C5.78867 33.5798 7.3088 37.0583 10.5134 38.7017L10.9516 38.9208L11.4173 38.7565C13.9371 37.8526 16.2652 36.4147 18.3332 34.47C19.6616 33.2101 20.8119 31.8132 21.7569 30.3342C22.0445 30.3752 22.3321 30.4026 22.6197 30.4026C25.8106 30.4026 28.4126 27.8006 28.4126 24.6097C28.4126 22.8978 27.6594 21.3503 26.4679 20.2821L30.1108 12.928L33.781 20.4191C32.6717 21.4736 31.987 22.9526 31.987 24.596C31.987 27.7869 34.589 30.3889 37.7799 30.3889C39.0124 30.3889 40.1491 30.0055 41.0804 29.3481C41.724 30.6902 41.9705 32.1967 41.7103 33.6894Z" fill="white"/>
</svg>
