<svg width="50" height="50" viewBox="0 0 50 50" fill="none" xmlns="http://www.w3.org/2000/svg">
<path d="M0 0H50V50H0V0ZM45.9042 38.075C45.5396 35.7937 44.0542 33.8771 39.6479 32.0896C38.1146 31.3708 36.4104 30.8708 35.9042 29.7146C35.7146 29.0271 35.6854 28.6521 35.8083 28.2458C36.1208 26.9 37.7146 26.4958 38.9646 26.8708C39.7771 27.1208 40.5271 27.7458 40.9979 28.7458C43.1521 27.3375 43.1521 27.3375 44.6542 26.4021C44.0917 25.5271 43.8125 25.15 43.4333 24.7771C42.1208 23.3083 40.3729 22.5583 37.5292 22.6229L36.0604 22.8083C34.6521 23.1521 33.3104 23.9021 32.4979 24.9021C30.1229 27.5917 30.8083 32.2792 33.6833 34.2167C36.5271 36.3417 40.6854 36.8083 41.2167 38.8104C41.7167 41.2479 39.4042 42.0292 37.1208 41.7479C35.4313 41.3729 34.4958 40.5271 33.4646 38.9646L29.6521 41.1542C30.0896 42.1542 30.5896 42.5896 31.3396 43.4646C34.9646 47.1229 44.0271 46.9354 45.6542 41.3729C45.7146 41.1854 46.1542 39.9042 45.8083 37.9354L45.9042 38.075ZM27.1896 22.9812H22.5063C22.5063 27.0187 22.4875 31.0312 22.4875 35.075C22.4875 37.6417 22.6187 39.9979 22.2 40.7229C21.5125 42.1583 19.7417 41.975 18.9375 41.7229C18.1125 41.3146 17.6938 40.7521 17.2083 39.9417C17.0771 39.7229 16.9792 39.5333 16.9438 39.5333L13.1417 41.8771C13.7771 43.1896 14.7042 44.3187 15.9 45.0375C17.6812 46.1 20.075 46.4437 22.5812 45.8812C24.2125 45.4104 25.6187 44.4417 26.3542 42.9417C27.4167 41.0042 27.1917 38.6292 27.1812 35.9708C27.2062 31.6917 27.1812 27.4104 27.1812 23.0979L27.1896 22.9812Z" fill="#DEDEDE"/>
</svg>
