<svg width="44" height="50" viewBox="0 0 44 50" fill="none" xmlns="http://www.w3.org/2000/svg">
<path d="M4.08373 44.9554L0 0L43.9945 0.0171583L39.9451 44.9211L21.9629 50L4.08373 44.9554ZM36.6335 42.5017L40.048 3.99794H22.0316L22.1688 46.4653L36.6335 42.5017ZM20.35 9.6431H15.9746L15.9231 32.687L7.42965 30.3706L7.44681 35.6383L20.35 39.1215V9.6431Z" fill="#F0D808"/>
<path opacity="0.986" d="M7.44672 35.6382L7.42957 30.3705C7.42957 30.3705 12.8517 31.8976 15.923 32.6869L15.9745 9.66016H20.3499V39.1214L7.44672 35.6382Z" fill="#191919"/>
<path d="M22.0316 3.98047H40.0481L36.6335 42.4842L22.0316 46.4478V3.98047ZM35.707 36.0326L36.8909 21.6366L28.1401 22.6146V14.9276L37.4743 14.8933L37.8518 9.64279L23.7646 9.71142L23.9534 28.826L32.464 27.3676L32.3439 31.6229L23.7646 33.905L23.8504 39.1212L35.707 36.0326Z" fill="#FAFF1D"/>
</svg>
