<svg width="52" height="50" viewBox="0 0 52 50" fill="none" xmlns="http://www.w3.org/2000/svg">
<path d="M25.5701 0.716196C25.1275 0.73849 24.6939 0.848221 24.2946 1.03895L6.89038 9.35487C6.43992 9.57 6.04412 9.88302 5.73237 10.2707C5.42062 10.6583 5.20094 11.1107 5.08964 11.5941L0.795896 30.2738C0.696747 30.7042 0.685651 31.1499 0.763264 31.5846C0.840878 32.0193 1.00562 32.4342 1.24775 32.8046C1.30646 32.8952 1.3696 32.9828 1.43695 33.0673L13.4835 48.0453C13.7953 48.4329 14.1911 48.7458 14.6416 48.9608C15.0921 49.1758 15.5856 49.2874 16.0855 49.2873L35.404 49.2829C35.9038 49.2833 36.3972 49.172 36.8477 48.9574C37.2981 48.7427 37.6941 48.4302 38.0061 48.0431L50.0482 33.0628C50.3601 32.6751 50.58 32.2226 50.6914 31.7389C50.8027 31.2553 50.8028 30.753 50.6914 30.2693L46.391 11.5897C46.2797 11.1062 46.06 10.6539 45.7483 10.2662C45.4365 9.87857 45.0407 9.56555 44.5903 9.35042L27.1838 1.03895C26.6816 0.799028 26.1267 0.688048 25.5701 0.716196Z" fill="#326CE5"/>
<path d="M25.7425 7.07324C25.1672 7.0733 24.7007 7.59149 24.7008 8.23071C24.7008 8.24052 24.7028 8.24989 24.703 8.25964C24.7021 8.34649 24.6979 8.45113 24.7008 8.52675C24.7145 8.89543 24.7948 9.1776 24.8432 9.51727C24.9308 10.2443 25.0043 10.8469 24.959 11.4071C24.9149 11.6183 24.7593 11.8114 24.6206 11.9457L24.5961 12.3864C23.971 12.4382 23.3416 12.5331 22.713 12.6758C20.0082 13.29 17.6793 14.6832 15.9063 16.5644C15.7912 16.4859 15.5899 16.3416 15.5301 16.2973C15.3441 16.3224 15.1561 16.3798 14.9113 16.2372C14.4451 15.9234 14.0205 15.4903 13.5067 14.9685C13.2713 14.7189 13.1009 14.4812 12.8212 14.2406C12.7577 14.186 12.6607 14.1121 12.5897 14.0559C12.371 13.8815 12.1131 13.7906 11.864 13.7821C11.5438 13.7711 11.2355 13.8963 11.0338 14.1493C10.6751 14.5992 10.79 15.2867 11.2898 15.6852C11.2948 15.6892 11.3002 15.6924 11.3053 15.6963C11.374 15.752 11.4581 15.8233 11.5213 15.87C11.8181 16.0891 12.0892 16.2013 12.3849 16.3752C13.0079 16.76 13.5244 17.079 13.9341 17.4637C14.0941 17.6342 14.1221 17.9347 14.1434 18.0647L14.4772 18.363C12.6899 21.0528 11.8627 24.3753 12.3515 27.7607L11.9152 27.8875C11.8003 28.036 11.6378 28.2697 11.4678 28.3394C10.9318 28.5082 10.3286 28.5702 9.60031 28.6466C9.25839 28.675 8.96337 28.658 8.60089 28.7267C8.52111 28.7418 8.40994 28.7708 8.32265 28.7913C8.31962 28.7919 8.31678 28.7928 8.31375 28.7935C8.30899 28.7946 8.30274 28.7969 8.29817 28.7979C7.68417 28.9463 7.28973 29.5106 7.41671 30.0667C7.54373 30.6229 8.14347 30.9611 8.76115 30.8279C8.76561 30.8269 8.77208 30.8267 8.77673 30.8257C8.78371 30.8241 8.78984 30.8207 8.79677 30.819C8.88287 30.8001 8.99078 30.7791 9.0661 30.7589C9.42248 30.6635 9.68058 30.5233 10.001 30.4006C10.6902 30.1534 11.2611 29.9468 11.8173 29.8664C12.0496 29.8482 12.2943 30.0097 12.4161 30.0778L12.8701 29.9999C13.9151 33.2396 16.1049 35.8581 18.8778 37.5012L18.6886 37.9552C18.7568 38.1316 18.832 38.3701 18.7812 38.5443C18.579 39.0686 18.2327 39.622 17.8383 40.239C17.6474 40.5241 17.4519 40.7453 17.2796 41.0715C17.2384 41.1496 17.1859 41.2695 17.1461 41.352C16.8783 41.9248 17.0747 42.5846 17.589 42.8322C18.1066 43.0813 18.7489 42.8185 19.027 42.2445C19.0274 42.2437 19.0288 42.2431 19.0292 42.2423C19.0295 42.2417 19.0289 42.2407 19.0292 42.2401C19.0688 42.1587 19.1249 42.0517 19.1583 41.9752C19.3059 41.6371 19.355 41.3473 19.4588 41.0203C19.7344 40.3279 19.8858 39.6015 20.2653 39.1488C20.3692 39.0249 20.5386 38.9772 20.7142 38.9302L20.9501 38.5028C23.3675 39.4307 26.0733 39.6797 28.7763 39.066C29.393 38.926 29.9883 38.7448 30.5637 38.5273C30.6301 38.6449 30.7533 38.871 30.7863 38.928C30.9648 38.986 31.1596 39.016 31.3183 39.2507C31.6022 39.7357 31.7963 40.3095 32.0328 41.0025C32.1366 41.3295 32.1879 41.6193 32.3355 41.9574C32.3692 42.0345 32.425 42.1429 32.4646 42.2245C32.7421 42.8004 33.3865 43.0641 33.9048 42.8144C34.419 42.5666 34.6156 41.9069 34.3477 41.3342C34.3079 41.2517 34.2532 41.1317 34.212 41.0537C34.0396 40.7275 33.8442 40.5085 33.6533 40.2234C33.2589 39.6065 32.9318 39.0939 32.7295 38.5696C32.645 38.2992 32.7438 38.131 32.8097 37.9552C32.7702 37.91 32.6858 37.6547 32.636 37.5346C35.5178 35.833 37.6433 33.1169 38.6415 29.9799C38.7763 30.0011 39.0106 30.0425 39.0867 30.0578C39.2433 29.9545 39.3874 29.8196 39.6699 29.8419C40.226 29.9223 40.7969 30.1289 41.4862 30.3761C41.8066 30.4988 42.0647 30.6413 42.4211 30.7367C42.4964 30.7569 42.6043 30.7757 42.6904 30.7946C42.6973 30.7963 42.7034 30.7996 42.7104 30.8012C42.7151 30.8023 42.7215 30.8024 42.726 30.8035C43.3437 30.9364 43.9436 30.5984 44.0704 30.0422C44.1973 29.4861 43.803 28.9216 43.189 28.7734C43.0997 28.7531 42.973 28.7186 42.8863 28.7022C42.5238 28.6336 42.2288 28.6505 41.8868 28.6221C41.1586 28.5458 40.5553 28.4837 40.0193 28.3149C39.8008 28.2301 39.6453 27.9701 39.5697 27.8631L39.149 27.7406C39.3671 26.1626 39.3083 24.5203 38.9309 22.8771C38.5499 21.2185 37.8766 19.7016 36.9788 18.3652C37.0867 18.2671 37.2905 18.0866 37.3482 18.0335C37.3651 17.8466 37.3506 17.6506 37.5441 17.4437C37.9538 17.059 38.4703 16.74 39.0933 16.3552C39.3891 16.1812 39.6624 16.0691 39.9592 15.8499C40.0263 15.8004 40.118 15.7219 40.1885 15.6652C40.6882 15.2666 40.8032 14.5791 40.4445 14.1293C40.0857 13.6796 39.3905 13.6372 38.8908 14.0358C38.8197 14.0922 38.7232 14.1656 38.6593 14.2206C38.3796 14.4612 38.2069 14.6988 37.9715 14.9484C37.4578 15.4703 37.0331 15.9056 36.567 16.2194C36.365 16.337 36.0691 16.2963 35.9348 16.2884L35.5386 16.5711C33.2793 14.202 30.2033 12.6874 26.891 12.3931C26.8818 12.2543 26.8696 12.0034 26.8665 11.9279C26.7309 11.7982 26.5671 11.6874 26.526 11.4071C26.4807 10.8469 26.5563 10.2443 26.644 9.51727C26.6923 9.1776 26.7727 8.89543 26.7864 8.52675C26.7895 8.44294 26.7845 8.32132 26.7842 8.23071C26.7841 7.59149 26.3178 7.07318 25.7425 7.07324H25.7425ZM24.4381 15.1532L24.1287 20.6178L24.1064 20.6289C24.0857 21.1178 23.6833 21.5081 23.1894 21.5081C22.987 21.5081 22.8003 21.4432 22.6485 21.3323L22.6396 21.3367L18.1589 18.1604C19.536 16.8063 21.2974 15.8056 23.3274 15.3446C23.6982 15.2605 24.0688 15.198 24.4381 15.1532ZM27.0491 15.1532C29.4191 15.4447 31.6109 16.5179 33.2905 18.1626L28.8387 21.3189L28.8231 21.3123C28.428 21.6009 27.8712 21.5293 27.5632 21.1431C27.4371 20.9849 27.3709 20.7989 27.3629 20.6111L27.3585 20.6089L27.0491 15.1532ZM16.534 20.2015L20.6251 23.8609L20.6207 23.8832C20.99 24.2042 21.0444 24.7613 20.7364 25.1475C20.6103 25.3057 20.4414 25.4118 20.2601 25.4613L20.2557 25.4791L15.0115 26.9927C14.7445 24.5521 15.3198 22.1796 16.534 20.2015ZM34.922 20.2038C35.5299 21.189 35.9902 22.2895 36.2642 23.4825C36.535 24.6612 36.6029 25.8378 36.4913 26.9749L31.2204 25.4569L31.2159 25.4346C30.7439 25.3056 30.4539 24.8255 30.5637 24.3439C30.6088 24.1466 30.7135 23.9798 30.8553 23.8564L30.8531 23.8453L34.922 20.2038H34.922ZM24.9033 24.1436H26.5794L27.6211 25.4457L27.2472 27.0706L25.7425 27.794L24.2333 27.0684L23.8594 25.4435L24.9033 24.1436ZM30.2766 28.5998C30.3478 28.5962 30.4187 28.6026 30.4881 28.6154L30.497 28.6043L35.9215 29.5213C35.1276 31.7517 33.6085 33.6839 31.5788 34.977L29.4731 29.8908L29.4797 29.8819C29.2863 29.4325 29.4799 28.9054 29.9249 28.6911C30.0389 28.6362 30.1579 28.6058 30.2766 28.5998H30.2766ZM21.166 28.6221C21.58 28.6279 21.9513 28.9152 22.0475 29.3366C22.0925 29.5339 22.0706 29.7293 21.9963 29.902L22.0119 29.922L19.9284 34.957C17.9805 33.707 16.429 31.8354 15.5991 29.5392L20.9768 28.6265L20.9857 28.6377C21.0459 28.6266 21.1069 28.6213 21.166 28.6221V28.6221ZM25.7091 30.8279C25.8533 30.8226 25.9996 30.8522 26.1387 30.9192C26.321 31.007 26.4618 31.1452 26.5505 31.311H26.5705L29.2215 36.1011C28.8775 36.2164 28.5238 36.315 28.162 36.3971C26.1345 36.8575 24.1135 36.718 22.2834 36.0944L24.9278 31.3132H24.9322C25.0909 31.0166 25.3918 30.8396 25.7091 30.8279Z" fill="white" stroke="white" stroke-width="0.25"/>
</svg>
