<svg width="70" height="70" viewBox="0 0 70 70" fill="none" xmlns="http://www.w3.org/2000/svg">
<path d="M67.8945 57.728L56.1273 45.9608C55.3271 45.1604 54.0296 45.1604 53.2292 45.9608L51.9871 47.2028L47.0976 42.3131C50.5247 37.8736 52.567 32.3129 52.567 26.2833C52.5668 11.7907 40.7761 0 26.2835 0C11.7907 0 0 11.7907 0 26.2833C0 40.7761 11.7907 52.5668 26.2835 52.5668C32.3129 52.5668 37.8736 50.5247 42.3133 47.0975L47.2028 51.9871L45.9608 53.2292C45.1606 54.0294 45.1606 55.3269 45.9608 56.1273L57.7281 67.8945C60.5355 70.7018 65.0872 70.7018 67.8945 67.8945C70.7018 65.087 70.7018 60.5353 67.8945 57.728ZM26.2835 13.4201C19.1905 13.4201 13.4201 19.1905 13.4201 26.2835C13.4201 28.1519 11.9055 29.6664 10.0371 29.6664C8.16876 29.6664 6.65422 28.1519 6.65422 26.2835C6.65405 15.46 15.4598 6.65422 26.2835 6.65422C28.1519 6.65422 29.6664 8.16876 29.6664 10.0371C29.6664 11.9055 28.1519 13.4201 26.2835 13.4201Z" fill="#DEDEDE"/>
</svg>
