<svg width="58" height="70" viewBox="0 0 58 70" fill="none" xmlns="http://www.w3.org/2000/svg">
<path d="M35.0001 0H25.7144C19.6502 0 13.9079 2.434 9.54535 6.85357C5.29507 11.1596 2.85721 16.9927 2.85721 22.8571V31.2871L0.0277807 45.4341C-0.0562193 45.8539 0.0524947 46.289 0.32378 46.62C0.595066 46.951 1.00049 47.1429 1.42849 47.1429H6.34221C7.53064 49.288 7.40049 51.2104 7.28449 52.9247C7.18135 54.4489 7.07478 56.025 8.16635 57.193C9.05735 58.1464 10.5041 58.5714 12.8571 58.5714H28.5714V70H29.9999H31.4285H54.9999H56.4285H57.8571V22.8571C57.8572 10.2536 47.6035 0 35.0001 0ZM40.7449 28.2776C40.7451 28.277 40.7452 28.2763 40.7453 28.2757C40.7568 28.2211 40.7722 28.1681 40.7896 28.1161C40.7936 28.104 40.7983 28.0921 40.8028 28.0801C40.8185 28.0373 40.8361 27.9954 40.8558 27.9547C40.8592 27.9474 40.8615 27.9399 40.8651 27.9326L44.4365 20.7897C44.6785 20.3056 45.1732 20 45.7142 20C46.2552 20 46.7501 20.3057 46.9919 20.7897L50.5633 27.9326C50.5669 27.9399 50.5692 27.9474 50.5726 27.9547C50.5922 27.9954 50.6098 28.0371 50.6255 28.08C50.6299 28.092 50.6346 28.104 50.6388 28.1161C50.6562 28.168 50.6715 28.2209 50.6829 28.2753C50.6831 28.2761 50.6833 28.2769 50.6835 28.2777C50.6841 28.2804 50.6848 28.283 50.6853 28.2857H40.7426C40.7436 28.2829 40.7443 28.2804 40.7449 28.2776ZM40.7143 31.4286H44.1429V55.5714H40.7143V31.4286ZM40.0001 22.1429H27.1429V24.2857H34.2858C35.0748 24.2857 35.7144 24.9253 35.7144 25.7143V42.8571H32.8572V27.1429H27.1429V35H24.2858V30H15.0001V37.8571H12.1429V28.5714C12.1429 27.7824 12.7825 27.1429 13.5715 27.1429H24.2858V22.1429H17.1429V19.2857H30.7144V10H33.5715V19.2857H40.0001V22.1429ZM50.7143 62.8571C50.7143 63.646 50.0748 64.2857 49.2858 64.2857H42.1429C41.3539 64.2857 40.7143 63.646 40.7143 62.8571V58.7143H50.7143V62.8571ZM50.7143 55.5714H47.2859V31.4286H50.7143V55.5714Z" fill="#DEDEDE"/>
</svg>
