<svg width="50" height="50" viewBox="0 0 50 50" fill="none" xmlns="http://www.w3.org/2000/svg">
<path d="M11.6387 16.0855H1.60113C1.15565 16.0855 0.794678 16.4466 0.794678 16.8919V49.1384C0.794678 49.5839 1.15565 49.9448 1.60113 49.9448H11.6387C12.0842 49.9448 12.4452 49.5839 12.4452 49.1384V16.8919C12.4452 16.4466 12.0842 16.0855 11.6387 16.0855Z" fill="#191919"/>
<path d="M6.62355 0.0549927C2.97129 0.0549927 0 3.02306 0 6.67128C0 10.3211 2.97129 13.2903 6.62355 13.2903C10.2729 13.2903 13.2418 10.321 13.2418 6.67128C13.2419 3.02306 10.2729 0.0549927 6.62355 0.0549927Z" fill="#191919"/>
<path d="M37.1701 15.284C33.1386 15.284 30.1585 17.0171 28.3509 18.9863V16.8919C28.3509 16.4466 27.9899 16.0855 27.5444 16.0855H17.9317C17.4862 16.0855 17.1252 16.4466 17.1252 16.8919V49.1384C17.1252 49.5839 17.4862 49.9448 17.9317 49.9448H27.9473C28.3928 49.9448 28.7538 49.5839 28.7538 49.1384V33.1839C28.7538 27.8076 30.2141 25.7131 33.9619 25.7131C38.0435 25.7131 38.3678 29.0708 38.3678 33.4605V49.1385C38.3678 49.584 38.7288 49.945 39.1743 49.945H49.1936C49.6391 49.945 50.0001 49.584 50.0001 49.1385V31.4508C50.0001 23.4564 48.4757 15.284 37.1701 15.284Z" fill="#191919"/>
</svg>
