<svg width="43" height="50" viewBox="0 0 43 50" fill="none" xmlns="http://www.w3.org/2000/svg">
<path d="M42.4475 21.2245C42.4475 9.52184 32.9291 0 21.2245 0C19.2537 0 17.3566 0.291274 15.5456 0.7967L15.5029 0.767779C15.4933 0.78224 15.4857 0.798077 15.4754 0.812538C6.56159 3.32659 0 11.5153 0 21.2231C0 25.4999 1.28216 29.48 3.46568 32.8128H0.998457V50H41.4518V32.8128H38.986C41.1716 29.4827 42.4475 25.5013 42.4475 21.2245ZM40.3363 20.1978H32.6867C32.6117 17.9171 32.3542 15.6751 31.8956 13.4985H38.7484C39.6642 15.5629 40.2124 17.8249 40.3363 20.1978ZM37.6708 11.4341H31.3874C30.6196 8.60808 29.5419 5.90261 28.1345 3.36721C32.14 4.92687 35.4886 7.78797 37.6708 11.4341ZM22.256 2.11329C23.2544 2.167 24.2364 2.27717 25.1921 2.48031C26.9728 5.24156 28.3424 8.24933 29.2631 11.4354H22.256V2.11329ZM22.256 13.4985H29.7933C30.2808 15.6717 30.5507 17.9116 30.6327 20.1978H22.2573V13.4985H22.256ZM22.256 22.2539H30.6492C30.6065 24.5345 30.3703 26.7773 29.9179 28.9546H22.256V22.2539ZM22.256 31.0155H29.4214C29.2534 31.6222 29.062 32.2185 28.8637 32.8155H22.2553V31.0155H22.256ZM16.814 2.59117C17.9082 2.33432 19.0375 2.17388 20.195 2.1126V11.4347H13.0295C13.8758 8.30579 15.1463 5.33176 16.814 2.59117ZM11.7997 20.1978C11.8424 17.9185 12.0806 15.6751 12.5317 13.4985H20.195V20.1978H11.7997ZM20.195 22.2539V28.9546H12.6563C12.1709 26.7807 11.9009 24.5386 11.8197 22.2539H20.195ZM13.924 3.51595C12.6164 6.01347 11.611 8.67074 10.9087 11.4368H4.77745C6.88867 7.90709 10.0879 5.1004 13.924 3.51595ZM3.70049 13.4985H10.4397C10.0135 15.6806 9.78006 17.9213 9.73668 20.1978H2.11053C2.23861 17.8249 2.78604 15.5629 3.70049 13.4985ZM2.11191 22.2539H9.76147C9.83722 24.5359 10.0948 26.7773 10.5547 28.9546H3.70187C2.78604 26.8881 2.23861 24.6302 2.11191 22.2539ZM11.0629 31.0155C11.2289 31.6222 11.4134 32.2185 11.6083 32.8155H6.01691C5.57621 32.2371 5.1548 31.6422 4.77882 31.0155H11.0629ZM13.4385 46.0131V47.015H5.51975V35.7985H6.6876H7.86165V45.0174H13.4385V46.0131ZM13.1872 31.0155H20.1936V32.8155H13.778C13.5701 32.2185 13.3621 31.6256 13.1872 31.0155ZM16.7445 47.015H15.5766H14.4026V35.7985H15.5704H16.7445V47.015V47.015ZM23.6001 47.015H22.4873H21.3739L17.5749 35.7985H18.8185H20.0635L22.528 44.3556L24.9842 35.7985H26.1871H27.4004L23.6001 47.015ZM36.9292 46.0131V47.015H28.4195V35.7985H36.6716V36.788V37.7906H30.7594V40.1697H36.2426V41.1309V42.0984H30.7594V45.0194H36.9326V46.0124H36.9292V46.0131ZM36.4347 32.8155H31.03C31.2104 32.2185 31.3853 31.6222 31.5402 31.0155H37.6708C37.2955 31.6442 36.8741 32.2371 36.4347 32.8155ZM32.0085 28.9553C32.434 26.7745 32.6668 24.5318 32.7108 22.2546H40.3363C40.2124 24.6288 39.6642 26.8867 38.7484 28.9553H32.0085Z" fill="#DEDEDE"/>
</svg>
