<svg width="70" height="50" viewBox="0 0 70 50" fill="none" xmlns="http://www.w3.org/2000/svg">
<path d="M66.922 0H2.24151C1.00363 0 0 1.00378 0 2.24182V47.7583C0 48.9964 1.00363 50 2.24151 50H66.9218C68.1598 50 69.1635 48.9965 69.1635 47.7583V2.24182C69.1635 1.00378 68.16 0 66.922 0ZM61.203 38.4618C62.1522 39.2857 62.2538 40.7229 61.4301 41.6722C60.6063 42.6211 59.1694 42.7233 58.2196 41.8992C57.6315 41.3888 42.7922 28.5096 42.2204 28.0133L36.0734 33.3484C35.6456 33.7198 35.1137 33.9055 34.5817 33.9055C34.0498 33.9055 33.5179 33.7198 33.09 33.3484L26.9431 28.0133C26.3711 28.5097 11.5319 41.3888 10.9439 41.8992C9.99457 42.723 8.55717 42.6215 7.73333 41.6722C6.90949 40.7229 7.01114 39.2857 7.96045 38.4618L23.4711 24.9998L7.96045 11.5382C7.01129 10.7143 6.90964 9.27708 7.73333 8.32777C8.55732 7.37861 9.99457 7.27665 10.9439 8.1008C11.7131 8.76836 33.1852 27.4043 34.5817 28.6164C35.7912 27.5667 57.386 8.82435 58.2196 8.1008C59.1688 7.2768 60.6063 7.3783 61.4301 8.32777C62.254 9.27708 62.1523 10.7145 61.203 11.5382L45.6924 24.9998L61.203 38.4618Z" fill="#191919"/>
</svg>
