<svg width="70" height="70" viewBox="0 0 70 70" fill="none" xmlns="http://www.w3.org/2000/svg">
<path d="M53.6434 52.4775C51.0709 52.4775 48.9788 54.5696 48.9788 57.1421C48.9788 59.7146 51.0709 61.8067 53.6434 61.8067C56.2159 61.8067 58.308 59.7146 58.308 57.1421C58.308 54.5696 56.216 52.4775 53.6434 52.4775Z" fill="#DEDEDE"/>
<path d="M53.5863 47.8408H53.5409C47.3533 47.8606 41.5015 51.7043 37.4841 58.3876C37.2567 58.7677 37.2625 59.2412 37.4992 59.6145C41.7346 66.2895 47.4325 69.9781 53.5444 70.0002H53.5992C59.7204 70.0002 65.466 66.3164 69.7831 59.6214C70.0257 59.2459 70.0315 58.7642 69.7995 58.3818C65.7167 51.681 59.809 47.8408 53.5863 47.8408ZM53.6434 64.1391C49.7846 64.1391 46.6465 61.001 46.6465 57.1422C46.6465 53.2834 49.7846 50.1453 53.6434 50.1453C57.5022 50.1453 60.6403 53.2834 60.6403 57.1422C60.6403 61.001 57.5022 64.1391 53.6434 64.1391Z" fill="#DEDEDE"/>
<path d="M8.16324 5.83057C6.87691 5.83057 5.83093 6.87654 5.83093 8.16287C5.83093 9.44919 6.87691 10.4952 8.16324 10.4952C9.44956 10.4952 10.4955 9.44919 10.4955 8.16287C10.4955 6.87654 9.44942 5.83057 8.16324 5.83057Z" fill="#DEDEDE"/>
<path d="M18.6585 5.83057C17.3721 5.83057 16.3262 6.87654 16.3262 8.16287C16.3262 9.44919 17.3721 10.4952 18.6585 10.4952C19.9448 10.4952 20.9908 9.44919 20.9908 8.16287C20.9908 6.87654 19.9448 5.83057 18.6585 5.83057Z" fill="#DEDEDE"/>
<path d="M29.1541 5.83057C27.8678 5.83057 26.8218 6.87654 26.8218 8.16287C26.8218 9.44919 27.8678 10.4952 29.1541 10.4952C30.4404 10.4952 31.4864 9.44919 31.4864 8.16287C31.4864 6.87654 30.4404 5.83057 29.1541 5.83057Z" fill="#DEDEDE"/>
<path d="M66.6204 0H3.34919C1.50323 0 0 1.50196 0 3.34919V13.994H69.9696V3.34919C69.9696 1.50196 68.4665 0 66.6204 0ZM8.1632 12.8278C5.59069 12.8278 3.49859 10.7357 3.49859 8.1632C3.49859 5.59069 5.59069 3.49859 8.1632 3.49859C10.7357 3.49859 12.8278 5.59069 12.8278 8.1632C12.8278 10.7357 10.7357 12.8278 8.1632 12.8278ZM18.6586 12.8278C16.0861 12.8278 13.994 10.7357 13.994 8.1632C13.994 5.59069 16.0861 3.49859 18.6586 3.49859C21.2311 3.49859 23.3232 5.59069 23.3232 8.1632C23.3232 10.7357 21.2312 12.8278 18.6586 12.8278ZM29.1541 12.8278C26.5816 12.8278 24.4895 10.7357 24.4895 8.1632C24.4895 5.59069 26.5816 3.49859 29.1541 3.49859C31.7266 3.49859 33.8187 5.59069 33.8187 8.1632C33.8187 10.7357 31.7266 12.8278 29.1541 12.8278Z" fill="#DEDEDE"/>
<path d="M0 65.7801C0 68.0913 1.87985 69.97 4.18998 69.97H44.7292C41.2658 68.0401 38.1311 64.9637 35.5293 60.8635C34.8156 59.7393 34.7981 58.3306 35.485 57.1878C39.9316 49.7873 46.5099 45.5309 53.5325 45.5087C59.7365 45.5087 65.5813 48.7494 69.9695 54.4998V16.3267H0V65.7801ZM24.4895 61.8068H22.1572C21.5135 61.8068 20.991 61.2856 20.991 60.6407C20.991 59.9958 21.5135 59.4745 22.1572 59.4745H24.4895C25.1331 59.4745 25.6556 59.9958 25.6556 60.6407C25.6556 61.2856 25.1331 61.8068 24.4895 61.8068ZM22.1572 31.4868H24.4895C25.1331 31.4868 25.6556 32.008 25.6556 32.6529C25.6556 33.2978 25.1331 33.8191 24.4895 33.8191H22.1572C21.5135 33.8191 20.991 33.2978 20.991 32.6529C20.991 32.008 21.5134 31.4868 22.1572 31.4868ZM12.8278 29.1545C12.1841 29.1545 11.6617 28.6332 11.6617 27.9883C11.6617 27.3434 12.1841 26.8222 12.8278 26.8222H29.1541C29.7977 26.8222 30.3202 27.3434 30.3202 27.9883C30.3202 28.6332 29.7977 29.1545 29.1541 29.1545H12.8278ZM29.1541 40.816C29.7977 40.816 30.3202 41.3372 30.3202 41.9821C30.3202 42.6271 29.7977 43.1483 29.1541 43.1483H12.8278C12.1841 43.1483 11.6617 42.6271 11.6617 41.9821C11.6617 41.3372 12.1841 40.816 12.8278 40.816H29.1541ZM22.1572 45.4807H24.4895C25.1331 45.4807 25.6556 46.0019 25.6556 46.6469C25.6556 47.2918 25.1331 47.813 24.4895 47.813H22.1572C21.5135 47.813 20.991 47.2918 20.991 46.6469C20.991 46.0019 21.5134 45.4807 22.1572 45.4807ZM29.1541 54.8099C29.7977 54.8099 30.3202 55.3312 30.3202 55.9761C30.3202 56.621 29.7977 57.1422 29.1541 57.1422H12.8278C12.1841 57.1422 11.6617 56.621 11.6617 55.9761C11.6617 55.3312 12.1841 54.8099 12.8278 54.8099H29.1541ZM31.4864 61.8068H29.1541C28.5104 61.8068 27.9879 61.2856 27.9879 60.6407C27.9879 59.9958 28.5104 59.4745 29.1541 59.4745H31.4864C32.13 59.4745 32.6525 59.9958 32.6525 60.6407C32.6525 61.2856 32.1302 61.8068 31.4864 61.8068ZM32.6525 52.4776H26.8218C26.1781 52.4776 25.6556 51.9564 25.6556 51.3115C25.6556 50.6666 26.1781 50.1453 26.8218 50.1453H32.6525C33.2962 50.1453 33.8187 50.6666 33.8187 51.3115C33.8187 51.9564 33.2963 52.4776 32.6525 52.4776ZM37.3171 47.813H29.1541C28.5104 47.813 27.9879 47.2918 27.9879 46.6469C27.9879 46.0019 28.5104 45.4807 29.1541 45.4807H37.3171C37.9608 45.4807 38.4833 46.0019 38.4833 46.6469C38.4833 47.2918 37.9609 47.813 37.3171 47.813ZM38.4833 43.1483H33.8187C33.175 43.1483 32.6525 42.6271 32.6525 41.9821C32.6525 41.3372 33.175 40.816 33.8187 40.816H38.4833C39.1269 40.816 39.6494 41.3372 39.6494 41.9821C39.6496 42.6271 39.1271 43.1483 38.4833 43.1483ZM38.4833 38.4837H26.8216C26.178 38.4837 25.6555 37.9625 25.6555 37.3175C25.6555 36.6726 26.178 36.1514 26.8216 36.1514H38.4833C39.1269 36.1514 39.6494 36.6726 39.6494 37.3175C39.6494 37.9625 39.1271 38.4837 38.4833 38.4837ZM45.4803 33.8191H29.1541C28.5104 33.8191 27.9879 33.2978 27.9879 32.6529C27.9879 32.008 28.5104 31.4868 29.1541 31.4868H45.4803C46.124 31.4868 46.6465 32.008 46.6465 32.6529C46.6465 33.2978 46.124 33.8191 45.4803 33.8191ZM52.4772 27.9883C52.4772 28.6332 51.9547 29.1545 51.3111 29.1545H33.8187C33.175 29.1545 32.6525 28.6332 32.6525 27.9883C32.6525 27.3434 33.175 26.8222 33.8187 26.8222H51.3111C51.9549 26.822 52.4772 27.3434 52.4772 27.9883ZM43.148 22.1574H45.4803C46.124 22.1574 46.6465 22.6786 46.6465 23.3236C46.6465 23.9685 46.124 24.4897 45.4803 24.4897H43.148C42.5044 24.4897 41.9819 23.9685 41.9819 23.3236C41.9819 22.6786 42.5042 22.1574 43.148 22.1574ZM26.8218 22.1574H38.4834C39.1271 22.1574 39.6496 22.6786 39.6496 23.3236C39.6496 23.9685 39.1271 24.4897 38.4834 24.4897H26.8218C26.1781 24.4897 25.6556 23.9685 25.6556 23.3236C25.6556 22.6786 26.178 22.1574 26.8218 22.1574ZM6.99705 22.1574H22.1572C22.8008 22.1574 23.3233 22.6786 23.3233 23.3236C23.3233 23.9685 22.8008 24.4897 22.1572 24.4897H6.99705C6.35339 24.4897 5.8309 23.9685 5.8309 23.3236C5.8309 22.6786 6.35325 22.1574 6.99705 22.1574ZM6.99705 26.822H8.1632C8.80686 26.822 9.32935 27.3432 9.32935 27.9882C9.32935 28.6331 8.80686 29.1543 8.1632 29.1543H6.99705C6.35339 29.1543 5.8309 28.6331 5.8309 27.9882C5.8309 27.3432 6.35325 26.822 6.99705 26.822ZM6.99705 31.4868H17.4926C18.1362 31.4868 18.6587 32.008 18.6587 32.6529C18.6587 33.2978 18.1362 33.8191 17.4926 33.8191H6.99705C6.35339 33.8191 5.8309 33.2978 5.8309 32.6529C5.8309 32.008 6.35325 31.4868 6.99705 31.4868ZM6.99705 36.1514H22.1572C22.8008 36.1514 23.3233 36.6726 23.3233 37.3175C23.3233 37.9625 22.8008 38.4837 22.1572 38.4837H6.99705C6.35339 38.4837 5.8309 37.9625 5.8309 37.3175C5.8309 36.6726 6.35325 36.1514 6.99705 36.1514ZM6.99705 40.816H8.1632C8.80686 40.816 9.32935 41.3372 9.32935 41.9821C9.32935 42.6271 8.80686 43.1483 8.1632 43.1483H6.99705C6.35339 43.1483 5.8309 42.6271 5.8309 41.9821C5.8309 41.3373 6.35325 40.816 6.99705 40.816ZM6.99705 45.4807H17.4926C18.1362 45.4807 18.6587 46.0019 18.6587 46.6469C18.6587 47.2918 18.1362 47.813 17.4926 47.813H6.99705C6.35339 47.813 5.8309 47.2918 5.8309 46.6469C5.8309 46.0019 6.35325 45.4807 6.99705 45.4807ZM6.99705 50.1453H22.1572C22.8008 50.1453 23.3233 50.6666 23.3233 51.3115C23.3233 51.9564 22.8008 52.4776 22.1572 52.4776H6.99705C6.35339 52.4776 5.8309 51.9564 5.8309 51.3115C5.8309 50.6666 6.35325 50.1453 6.99705 50.1453ZM6.99705 54.8099H8.1632C8.80686 54.8099 9.32935 55.3312 9.32935 55.9761C9.32935 56.621 8.80686 57.1422 8.1632 57.1422H6.99705C6.35339 57.1422 5.8309 56.621 5.8309 55.9761C5.8309 55.3312 6.35325 54.8099 6.99705 54.8099ZM6.99705 59.4745H17.4926C18.1362 59.4745 18.6587 59.9958 18.6587 60.6407C18.6587 61.2856 18.1362 61.8068 17.4926 61.8068H6.99705C6.35339 61.8068 5.8309 61.2856 5.8309 60.6407C5.8309 59.9959 6.35325 59.4745 6.99705 59.4745Z" fill="#DEDEDE"/>
</svg>
