<svg width="106" height="30" viewBox="0 0 106 30" fill="none" xmlns="http://www.w3.org/2000/svg">
<path fill-rule="evenodd" clip-rule="evenodd" d="M98.1477 12.4064C98.053 12.4253 97.9578 12.6343 97.9578 12.7482C97.9389 13.5083 97.92 15.5222 97.92 16.8901C97.92 16.9282 97.9768 17.0042 98.0338 17.0042C98.3188 17.0231 99.0027 17.0421 99.5917 17.0421C100.409 17.0421 100.884 16.9282 101.15 16.8144C101.834 16.4722 102.157 15.7312 102.157 14.9141C102.157 13.0714 100.865 12.3683 98.9457 12.3683C98.8127 12.3494 98.433 12.3494 98.1477 12.4064ZM103.05 20.8991C103.05 19.0182 101.663 17.9731 99.1549 17.9731C99.0408 17.9731 98.2428 17.9542 98.0528 17.992C97.9957 18.0112 97.92 18.0493 97.92 18.1063C97.92 19.455 97.9008 21.6022 97.9578 22.4381C97.9957 22.799 98.2619 23.3121 98.585 23.464C98.9267 23.6541 99.7058 23.6919 100.238 23.6919C101.739 23.6919 103.05 22.856 103.05 20.8991ZM94.2721 11.3615C94.4619 11.3615 95.0318 11.4184 96.4948 11.4184C97.8819 11.4184 98.9838 11.3805 100.333 11.3805C101.986 11.3805 104.266 11.9693 104.266 14.4393C104.266 15.6552 103.41 16.6243 102.29 17.0993C102.233 17.1183 102.233 17.1561 102.29 17.1751C103.885 17.5743 105.292 18.5621 105.292 20.4239C105.292 22.2481 104.152 23.407 102.499 24.129C101.492 24.5659 100.238 24.7179 98.9648 24.7179C97.9957 24.7179 95.3929 24.604 93.9491 24.6421C93.7971 24.5849 94.0821 23.9009 94.2149 23.7871C94.557 23.7679 94.8228 23.749 95.184 23.6349C95.697 23.5021 95.7538 23.35 95.8298 22.5711C95.8679 21.9061 95.8679 19.55 95.8679 17.8782C95.8679 15.5793 95.8871 14.0214 95.8679 13.2614C95.849 12.6726 95.64 12.4824 95.222 12.3683C94.8988 12.3115 94.367 12.2353 93.9299 12.1785C93.8348 12.0834 94.1578 11.4373 94.2721 11.3615ZM83.3092 23.1791C83.7654 23.5398 84.6583 23.6917 85.4563 23.6917C86.4823 23.6917 87.5082 23.5021 88.4962 22.6088C89.5032 21.6971 90.2061 20.2911 90.2061 18.0493C90.2061 15.9021 89.3891 14.1541 87.7172 13.1284C86.7672 12.5392 85.5513 12.2925 84.1453 12.2925C83.7273 12.2925 83.3283 12.3115 83.0815 12.4253C83.0242 12.4634 82.8914 12.6343 82.8914 12.7292C82.8534 13.1093 82.8534 16.0351 82.8534 17.7452C82.8534 19.5121 82.8534 21.9821 82.8914 22.267C82.8914 22.5522 83.0242 22.989 83.3094 23.1791H83.3092ZM78.9963 11.3613C79.3574 11.3613 80.7443 11.4184 81.4093 11.4184C82.6065 11.4184 83.4613 11.3615 85.7221 11.3615C87.622 11.3615 89.2181 11.8744 90.358 12.8433C91.7449 14.0403 92.4671 15.6933 92.4671 17.7071C92.4671 20.5761 91.156 22.2291 89.845 23.1791C88.5343 24.148 86.8242 24.7179 84.3923 24.7179C83.1004 24.7179 80.8775 24.68 79.0344 24.6608H79.0155C78.9206 24.4899 79.1674 23.8249 79.3193 23.806C79.8135 23.749 79.9465 23.7298 80.1935 23.6351C80.5923 23.483 80.6685 23.274 80.7255 22.5711C80.7824 21.26 80.7634 19.6832 80.7634 17.8971C80.7634 16.6243 80.7824 14.1352 80.7443 13.3372C80.6875 12.6724 80.4025 12.5013 79.8324 12.3872C79.5475 12.3304 79.1674 12.2542 78.6356 12.1974C78.5594 12.0642 78.9014 11.4754 78.9963 11.3615V11.3613Z" fill="#9B9A9A"/>
<path fill-rule="evenodd" clip-rule="evenodd" d="M56.0074 23.9201C55.5324 23.863 55.1904 23.7873 54.7725 23.5972C54.7154 23.5592 54.6203 23.3693 54.6203 23.2932C54.5824 22.6282 54.5824 20.7283 54.5824 19.4555C54.5824 18.4293 54.4116 17.5364 53.9745 16.9095C53.4614 16.1873 52.7206 15.7695 51.7705 15.7695C50.9346 15.7695 49.8135 16.3394 48.8825 17.1374C48.8636 17.1564 48.7117 17.2896 48.7306 17.0804C48.7306 16.8714 48.7687 16.4535 48.7876 16.1683C48.8068 15.9023 48.6546 15.7695 48.6546 15.7695C48.0467 16.0734 46.3368 16.4724 45.7097 16.5292C45.2538 16.6246 45.1398 17.0615 45.615 17.2134H45.6339C46.1465 17.3653 46.4887 17.5364 46.7545 17.7075C46.9446 17.8595 46.9256 18.0684 46.9256 18.2395C46.9446 19.6642 46.9446 21.8493 46.8877 23.0463C46.8688 23.5213 46.7358 23.6922 46.3936 23.7681L46.4317 23.7492C46.1657 23.8062 45.9567 23.863 45.6337 23.9011C45.5196 24.0152 45.5196 24.6232 45.6337 24.7562C45.8427 24.7562 46.9446 24.6991 47.8568 24.6991C49.1107 24.6991 49.7567 24.7562 50.0796 24.7562C50.2126 24.6042 50.2506 24.0341 50.1747 23.9011C49.8135 23.8822 49.5475 23.8443 49.3007 23.7681C48.9587 23.692 48.8636 23.5213 48.8445 23.1223C48.8068 22.1151 48.8068 19.9873 48.8068 18.5434C48.8068 18.1444 48.9206 17.9544 49.0345 17.8403C49.4716 17.4605 50.1747 17.1945 50.8016 17.1945C51.4096 17.1945 51.8084 17.3845 52.1125 17.6315C52.5304 17.9733 52.6634 18.4674 52.7204 18.8284C52.8153 19.6453 52.7775 21.2603 52.7775 22.6662C52.7775 23.4262 52.7204 23.6162 52.4357 23.7111C52.3025 23.7681 51.9605 23.8443 51.5615 23.882C51.4285 24.0152 51.4666 24.6042 51.5615 24.7372C52.1124 24.7372 52.7585 24.6802 53.7085 24.6802C54.8863 24.6802 55.6465 24.7372 55.9505 24.7372C56.0452 24.6232 56.0833 24.0722 56.0074 23.9201ZM61.2702 16.6627C60.2634 16.6627 59.6363 17.4415 59.6363 18.6573C59.6363 19.8924 60.1872 21.3173 61.7452 21.3173C62.0112 21.3173 62.5053 21.2032 62.733 20.9372C63.0941 20.5955 63.3412 19.9113 63.3412 19.1893C63.3412 17.6124 62.5621 16.6625 61.2702 16.6625V16.6627ZM61.1372 25.0601C60.7573 25.0601 60.4911 25.1741 60.3202 25.2692C59.5222 25.7819 59.1613 26.276 59.1613 26.8652C59.1613 27.416 59.3703 27.8529 59.8263 28.2329C60.3773 28.7079 61.1372 28.936 62.1061 28.936C64.0441 28.936 64.8991 27.891 64.8991 26.8652C64.8991 26.143 64.538 25.668 63.7972 25.4022C63.2652 25.1741 62.2963 25.0601 61.1372 25.0601ZM61.2702 30C60.1113 30 59.2752 29.753 58.5533 29.202C57.8502 28.67 57.5464 27.872 57.5464 27.3211C57.5464 27.1691 57.5844 26.751 57.9264 26.3711C58.1352 26.143 58.5914 25.7061 59.6744 24.9651C59.7123 24.9462 59.7312 24.9273 59.7312 24.889C59.7312 24.8511 59.6931 24.813 59.6552 24.7943C58.7623 24.4523 58.4963 23.9011 58.4201 23.5972V23.5592C58.4014 23.4451 58.3633 23.3312 58.5344 23.2172C58.6674 23.1223 58.8574 23.0082 59.0662 22.8754C59.3892 22.6852 59.7312 22.4762 59.9402 22.3051C59.9783 22.2672 59.9783 22.2294 59.9783 22.1913C59.9783 22.1532 59.9402 22.1151 59.9021 22.0964C58.5725 21.6593 57.9075 20.6712 57.9075 19.1893C57.9075 18.2204 58.3444 17.3464 59.1232 16.7955C59.6552 16.3775 60.9852 15.8644 61.8592 15.8644H61.9162C62.8092 15.8834 63.3031 16.0734 64.006 16.3205C64.386 16.4535 64.7472 16.5103 65.2413 16.5103C65.982 16.5103 66.3051 16.2824 66.5709 16.0166C66.59 16.0545 66.6281 16.1496 66.6471 16.3964C66.666 16.6435 66.59 17.0044 66.4 17.2704C66.248 17.4794 65.9061 17.6315 65.5641 17.6315H65.469C65.127 17.5935 64.9749 17.5554 64.9749 17.5554L64.8991 17.5935C64.8802 17.6315 64.8991 17.6694 64.918 17.7265L64.9372 17.7645C64.9751 17.9354 65.051 18.4483 65.051 18.5815C65.051 20.1394 64.4241 20.8232 63.7591 21.3362C63.113 21.8112 62.3723 22.1151 61.5362 22.1913C61.5172 22.1913 61.4415 22.1913 61.2702 22.2102C61.1753 22.2102 61.0423 22.2294 61.0231 22.2294H61.0042C60.8522 22.2672 60.4724 22.4573 60.4724 22.7801C60.4724 23.065 60.6433 23.4072 61.4602 23.4642C61.6311 23.4832 61.802 23.4832 61.9922 23.5023C63.0752 23.5781 64.4241 23.6732 65.051 23.8822C65.925 24.205 66.476 24.9841 66.476 25.9151C66.476 27.3213 65.4692 28.6321 63.7972 29.4489C62.9803 29.81 62.1631 30 61.2702 30ZM72.0997 16.7576C71.7009 16.7576 71.3398 16.8523 71.0738 17.0423C70.333 17.4983 69.9529 18.4104 69.9529 19.7402C69.9529 22.2294 71.2068 23.9773 72.9928 23.9773C73.5248 23.9773 73.9428 23.8252 74.3037 23.5213C74.8546 23.065 75.1398 22.1532 75.1398 20.8802C75.1398 18.4104 73.9047 16.7574 72.0999 16.7574L72.0997 16.7576ZM72.4419 24.8892C69.212 24.8892 68.053 22.5143 68.053 20.2914C68.053 18.7334 68.6799 17.5364 69.9338 16.6814C70.8269 16.1304 71.8909 15.8266 72.8409 15.8266C75.3107 15.8266 77.0397 17.5935 77.0397 20.1394C77.0397 21.8682 76.3557 23.2361 75.0447 24.0722C74.4177 24.4902 73.3348 24.8892 72.4417 24.8892H72.4419ZM38.585 16.7574C38.186 16.7574 37.8251 16.8523 37.5589 17.0423C36.8181 17.4983 36.4381 18.4104 36.4381 19.7402C36.4381 22.2294 37.6919 23.9773 39.478 23.9773C40.01 23.9773 40.4279 23.8252 40.789 23.5213C41.3398 23.065 41.6249 22.1532 41.6249 20.8802C41.6249 18.4104 40.409 16.7574 38.585 16.7574ZM38.927 24.8892C35.6971 24.8892 34.5382 22.5143 34.5382 20.2914C34.5382 18.7334 35.1651 17.5364 36.4189 16.6814C37.3121 16.1304 38.3761 15.8266 39.326 15.8266C41.796 15.8266 43.5248 17.5935 43.5248 20.1394C43.5248 21.8682 42.8409 23.2361 41.5298 24.0722C40.9218 24.4902 39.8389 24.8892 38.927 24.8892ZM17.2108 24.6991C17.1727 24.6423 17.1346 24.4712 17.1537 24.2623C17.1537 24.1101 17.1918 24.0152 17.2108 23.9773C17.6098 23.9201 17.8187 23.863 18.0466 23.8062C18.4267 23.7111 18.5787 23.5023 18.5976 23.0274C18.6548 21.8874 18.6548 19.7213 18.6357 18.2204V18.1823C18.6357 18.0114 18.6357 17.8022 18.4267 17.6503C18.1226 17.4605 17.7617 17.2896 17.2867 17.1562C17.1158 17.0995 17.0018 17.0044 17.0207 16.8906C17.0207 16.7765 17.1348 16.6435 17.3819 16.6054C18.0088 16.5484 19.6425 16.1496 20.2885 15.8644C20.3266 15.9023 20.3836 16.0166 20.3836 16.1685L20.3647 16.3773C20.3456 16.5865 20.3266 16.8335 20.3266 17.0804C20.3266 17.1564 20.4028 17.2134 20.4786 17.2134C20.5166 17.2134 20.5547 17.1945 20.5926 17.1753C21.8086 16.2254 22.9105 15.8834 23.4803 15.8834C24.4116 15.8834 25.1336 16.3205 25.6845 17.2323C25.7224 17.2896 25.7605 17.3085 25.8175 17.3085C25.8554 17.3085 25.9122 17.2896 25.9314 17.2515C27.0524 16.3964 28.1735 15.8834 28.9142 15.8834C30.6811 15.8834 31.7262 17.1945 31.7262 19.4174C31.7262 20.0443 31.7262 20.8613 31.7073 21.6024C31.7073 22.2672 31.6883 22.8752 31.6883 23.3123C31.6883 23.407 31.8211 23.7111 32.0301 23.7681C32.2961 23.9011 32.6572 23.9582 33.1322 24.0341H33.1511C33.1892 24.1671 33.1133 24.6611 33.0373 24.7562C32.9232 24.7562 32.7521 24.7562 32.5623 24.7372C32.0814 24.7121 31.5998 24.6994 31.1182 24.6991C29.9404 24.6991 29.3324 24.7181 28.7432 24.7562C28.7055 24.6042 28.6863 24.1482 28.7432 24.0341C29.0853 23.9773 29.2562 23.9201 29.4654 23.8633C29.8455 23.7492 29.9404 23.5781 29.9595 23.0842C29.9595 22.7233 30.0353 19.6453 29.9212 18.9043C29.8074 18.1444 29.2373 17.2515 27.9832 17.2515C27.5083 17.2515 26.7675 17.4415 26.0455 17.9923C26.0076 18.0303 25.9693 18.1253 25.9693 18.1823V18.2014C26.0455 18.6002 26.0455 19.0565 26.0455 19.7594V20.9943C26.0455 21.8493 26.0263 22.6473 26.0455 23.2551C26.0455 23.6732 26.2925 23.7681 26.5015 23.8443C26.6155 23.863 26.6913 23.8822 26.7864 23.9011C26.9573 23.9392 27.1284 23.9773 27.3944 24.0341C27.4325 24.1103 27.4325 24.3572 27.3755 24.5661C27.3563 24.6802 27.3182 24.737 27.2993 24.7562C26.6534 24.7372 25.9884 24.7181 25.0195 24.7181C24.7346 24.7181 24.2405 24.7372 23.8225 24.7372C23.4803 24.7372 23.1575 24.7562 22.9677 24.7562C22.9485 24.7181 22.9105 24.5853 22.9105 24.3761C22.9105 24.2052 22.9485 24.0722 22.9866 24.0341C23.0815 24.0152 23.1575 23.9963 23.2526 23.9963C23.4803 23.9582 23.6706 23.9201 23.8604 23.8822C24.1836 23.7873 24.2975 23.6162 24.3164 23.1982C24.3735 22.2483 24.4305 19.5314 24.2975 18.8473C24.0696 17.7454 23.4427 17.1945 22.4355 17.1945C21.8467 17.1945 21.1055 17.4794 20.4977 17.9356C20.4026 18.0114 20.3266 18.2012 20.3266 18.3723V19.4934C20.3266 20.8613 20.3266 22.5713 20.3456 23.3123C20.3647 23.54 20.4405 23.8062 20.8776 23.9011C20.9727 23.9201 21.1246 23.9582 21.3146 23.9773L21.6564 24.0341C21.6947 24.1482 21.6756 24.6042 21.5996 24.7562C21.4096 24.7562 21.1816 24.7372 20.9154 24.7372C20.5166 24.7181 20.0036 24.6991 19.4337 24.6991C18.7687 24.6991 18.2937 24.7181 17.9136 24.7372C17.6476 24.6991 17.4387 24.6991 17.2108 24.6991Z" fill="#DEDEDE"/>
<path fill-rule="evenodd" clip-rule="evenodd" d="M7.21685 29.2587L6.43799 28.9925C6.43799 28.9925 6.53311 25.0219 5.10798 24.7369C4.15824 23.6348 5.26033 -22.0015 8.68007 24.5848C8.68007 24.5848 7.502 25.1736 7.29303 26.1808C7.06491 27.1688 7.21685 29.2587 7.21685 29.2587Z" fill="white"/>
<path fill-rule="evenodd" clip-rule="evenodd" d="M7.21685 29.2587L6.43799 28.9925C6.43799 28.9925 6.53311 25.0219 5.10798 24.7369C4.15824 23.6348 5.26033 -22.0015 8.68007 24.5848C8.68007 24.5848 7.502 25.1736 7.29303 26.1808C7.06491 27.1688 7.21685 29.2587 7.21685 29.2587Z" fill="#A6A385"/>
<path fill-rule="evenodd" clip-rule="evenodd" d="M7.635 25.4211C7.635 25.4211 14.4559 20.9372 12.8597 11.6084C11.3209 4.82592 7.69203 2.60299 7.29303 1.74795C6.85614 1.13998 6.43799 0.0761719 6.43799 0.0761719L6.72314 18.9422C6.72314 18.9613 6.1341 24.718 7.6352 25.4213" fill="white"/>
<path fill-rule="evenodd" clip-rule="evenodd" d="M7.635 25.4211C7.635 25.4211 14.4559 20.9372 12.8597 11.6084C11.3209 4.82592 7.69203 2.60299 7.29303 1.74795C6.85614 1.13998 6.43799 0.0761719 6.43799 0.0761719L6.72314 18.9422C6.72314 18.9613 6.1341 24.718 7.6352 25.4213" fill="#499D4A"/>
<path fill-rule="evenodd" clip-rule="evenodd" d="M6.03921 25.668C6.03921 25.668 -0.363788 21.2981 0.0162739 13.6036C0.377189 5.90887 4.89902 2.12802 5.773 1.44407C6.34309 0.836096 6.36204 0.607976 6.40012 0C6.79913 0.855037 6.72316 12.7866 6.77998 14.1924C6.95086 19.6072 6.4761 24.6423 6.03921 25.668Z" fill="white"/>
<path fill-rule="evenodd" clip-rule="evenodd" d="M6.03921 25.668C6.03921 25.668 -0.363788 21.2981 0.0162739 13.6036C0.377189 5.90887 4.89902 2.12802 5.773 1.44407C6.34309 0.836096 6.36204 0.607976 6.40012 0C6.79913 0.855037 6.72316 12.7866 6.77998 14.1924C6.95086 19.6072 6.4761 24.6423 6.03921 25.668Z" fill="#58AA50"/>
</svg>
