<svg width="73" height="50" viewBox="0 0 73 50" fill="none" xmlns="http://www.w3.org/2000/svg">
<path d="M22.0817 40.3813H20.1287C20.0596 37.0848 19.8694 33.9857 19.5585 31.0817H19.5411L16.5677 40.3813H15.0808L12.1251 31.0817H12.1081C11.8888 33.8699 11.7507 36.9697 11.6933 40.3813H9.91321C10.0279 36.2327 10.3163 32.3434 10.777 28.7129H13.1976L16.0148 37.2867H16.0322L18.8667 28.7129H21.1827C21.6899 32.9653 21.9896 36.855 22.0817 40.3813ZM30.5514 31.7724C29.7562 36.0874 28.7071 39.2227 27.4051 41.1799C26.3907 42.6864 25.2793 43.4404 24.069 43.4404C23.7463 43.4404 23.3482 43.3431 22.8764 43.1498V42.1094C23.107 42.1426 23.3776 42.1615 23.6886 42.1615C24.2539 42.1615 24.7083 42.006 25.0547 41.6942C25.4691 41.3146 25.6763 40.8878 25.6763 40.4157C25.6763 40.0919 25.5148 39.4299 25.1925 38.4276L23.0493 31.772H24.9679L26.5062 36.7497C26.8518 37.88 26.996 38.6691 26.9383 39.1186C27.7795 36.872 28.3671 34.4224 28.7018 31.7716H30.5514V31.7724Z" fill="#5D87A1"/>
<path d="M56.5477 40.3811H51.0001V28.7127H52.8663V38.9448H56.5477V40.3811ZM49.5479 40.663L47.4029 39.6044C47.5931 39.4482 47.775 39.2791 47.9388 39.0833C48.8505 38.0122 49.3053 36.4283 49.3053 34.3304C49.3053 30.4702 47.7905 28.5391 44.7597 28.5391C43.2735 28.5391 42.1142 29.0289 41.2851 30.009C40.374 31.0808 39.9193 32.659 39.9193 34.7456C39.9193 36.7967 40.3223 38.3013 41.1288 39.2557C41.8666 40.1203 42.9788 40.5532 44.466 40.5532C45.0208 40.5532 45.5299 40.4852 45.9937 40.3483L48.7864 41.974L49.5479 40.663ZM42.5991 38.0462C42.1266 37.2861 41.8904 36.0657 41.8904 34.3829C41.8904 31.4449 42.7829 29.9743 44.5698 29.9743C45.5039 29.9743 46.1884 30.326 46.6262 31.0279C47.0979 31.7891 47.3353 32.9986 47.3353 34.658C47.3353 37.6201 46.442 39.1014 44.6563 39.1014C43.7218 39.1017 43.0373 38.7512 42.5991 38.0462ZM39.106 37.1469C39.106 38.1364 38.743 38.9481 38.0176 39.584C37.2915 40.2173 36.3179 40.5347 35.0978 40.5347C33.9566 40.5347 32.8501 40.1701 31.7791 39.4448L32.2806 38.4428C33.2022 38.9044 34.0366 39.1338 34.7857 39.1338C35.4888 39.1338 36.0382 38.978 36.4368 38.6689C36.8349 38.3587 37.0723 37.9235 37.0723 37.3733C37.0723 36.6801 36.5888 36.0876 35.702 35.5913C34.8842 35.1422 33.2486 34.2033 33.2486 34.2033C32.3621 33.5572 31.9183 32.8635 31.9183 31.7208C31.9183 30.7751 32.2493 30.0116 32.9116 29.4308C33.5747 28.8478 34.4302 28.5572 35.479 28.5572C36.5621 28.5572 37.5467 28.8474 38.4335 29.4218L37.9837 30.4241C37.2251 30.1018 36.4764 29.9407 35.7378 29.9407C35.1397 29.9407 34.6778 30.0845 34.3566 30.3732C34.0328 30.6607 33.8332 31.0287 33.8332 31.48C33.8332 32.1699 34.3268 32.7699 35.2378 33.276C36.0665 33.7259 37.7429 34.681 37.7429 34.681C38.652 35.326 39.106 36.0132 39.106 37.1469Z" fill="#F8981D"/>
<path d="M58.8905 24.8052C57.7621 24.7765 56.8885 24.8901 56.1552 25.2003C55.9435 25.2848 55.6069 25.2848 55.5775 25.5524C55.6918 25.6656 55.705 25.8483 55.8043 26.0045C55.9733 26.2864 56.2681 26.6657 56.5371 26.8635C56.8326 27.0899 57.1293 27.3141 57.4402 27.5114C57.9886 27.8507 58.6101 28.0481 59.1445 28.3862C59.4559 28.5828 59.7653 28.8372 60.077 29.0489C60.2303 29.1617 60.3284 29.3448 60.5273 29.4153V29.3723C60.4276 29.2455 60.3993 29.0621 60.3016 28.921L59.8782 28.5126C59.4691 27.9632 58.9607 27.4835 58.4124 27.0895C57.961 26.7785 56.9738 26.3559 56.7907 25.8358L56.7621 25.8071C57.0723 25.7781 57.4402 25.6656 57.735 25.5792C58.2146 25.4528 58.652 25.4815 59.1441 25.355C59.3706 25.2984 59.5951 25.2275 59.8223 25.1577V25.0305C59.5672 24.7765 59.3853 24.4391 59.117 24.1991C58.3992 23.5791 57.6082 22.9726 56.7907 22.465C56.353 22.1823 55.7899 22.0004 55.3238 21.76C55.1559 21.6751 54.8729 21.6332 54.774 21.4921C54.5211 21.1819 54.3789 20.7736 54.1955 20.4064C53.7879 19.6316 53.392 18.7719 53.0403 17.9526C52.7859 17.4031 52.6312 16.8544 52.321 16.3461C50.868 13.9496 49.2902 12.4982 46.8651 11.0736C46.3439 10.777 45.7239 10.6505 45.0616 10.495L44.0037 10.4392C43.7781 10.3403 43.552 10.072 43.355 9.94519C42.5504 9.43799 40.479 8.33866 39.8872 9.79009C39.5061 10.7075 40.451 11.6095 40.7756 12.0748C41.0152 12.3978 41.3258 12.7654 41.4934 13.1322C41.5926 13.3719 41.6206 13.6262 41.7198 13.8795C41.9455 14.4999 42.1564 15.1901 42.4531 15.769C42.6078 16.0641 42.7765 16.3744 42.9742 16.6415C43.0875 16.7978 43.2844 16.8668 43.3275 17.1216C43.1309 17.4024 43.1154 17.8262 43.0025 18.1786C42.4953 19.7716 42.6935 21.745 43.4124 22.9156C43.6373 23.2681 44.1739 24.044 44.8917 23.7466C45.5273 23.493 45.3865 22.6896 45.5691 21.985C45.611 21.8148 45.5835 21.7031 45.668 21.5914V21.6189C45.8646 22.0133 46.0631 22.3933 46.2454 22.7888C46.6828 23.479 47.4444 24.1983 48.0788 24.6765C48.4165 24.9316 48.6841 25.3679 49.1072 25.5237V25.4815H49.0792C48.9936 25.355 48.8683 25.2984 48.7558 25.2003C48.5014 24.9463 48.2199 24.6361 48.0225 24.3546C47.4316 23.5647 46.9085 22.6903 46.4443 21.788C46.2171 21.3502 46.0213 20.8717 45.8382 20.4347C45.7529 20.266 45.7529 20.0116 45.6114 19.9267C45.3993 20.2365 45.0902 20.5049 44.9355 20.8845C44.6672 21.4917 44.6393 22.2386 44.5396 23.0152L44.4842 23.0424C44.0351 22.9296 43.8788 22.465 43.7083 22.0706C43.286 21.0691 43.215 19.4614 43.5815 18.3058C43.6796 18.0103 44.1041 17.0797 43.9347 16.7982C43.8498 16.5283 43.5675 16.3747 43.4128 16.1623C43.2309 15.8951 43.0316 15.5569 42.9048 15.2603C42.5667 14.4712 42.3965 13.5968 42.0323 12.8081C41.8621 12.4405 41.5666 12.0601 41.3273 11.7216C41.0586 11.3411 40.7631 11.0732 40.5507 10.6222C40.4805 10.4671 40.382 10.2135 40.4948 10.0448C40.5224 9.93161 40.5797 9.88934 40.6922 9.86104C40.8748 9.70669 41.3968 9.90293 41.5798 9.98784C42.1025 10.1992 42.5395 10.3965 42.9757 10.6924C43.1731 10.8339 43.3848 11.1019 43.6381 11.1725H43.9347C44.3849 11.2706 44.8925 11.1996 45.3163 11.3272C46.0631 11.5672 46.7398 11.9193 47.3466 12.2993C49.1932 13.4704 50.716 15.1343 51.744 17.1216C51.9126 17.4454 51.9843 17.742 52.1383 18.0798C52.4353 18.7711 52.8025 19.4761 53.0973 20.1528C53.3935 20.8151 53.6758 21.4913 54.0988 22.0416C54.3098 22.3375 55.1574 22.4926 55.5374 22.6477C55.8186 22.7741 56.2564 22.8865 56.51 23.0417C56.9896 23.3371 57.4674 23.6764 57.9184 24.0014C58.1429 24.1704 58.8486 24.5229 58.8905 24.8052ZM44.5098 12.5537C44.3152 12.5517 44.1211 12.5755 43.9328 12.6246V12.6529H43.96C44.0736 12.8782 44.2709 13.0345 44.4117 13.2311C44.5253 13.4572 44.6238 13.6813 44.7351 13.907L44.7623 13.8791C44.9612 13.7383 45.0601 13.5126 45.0601 13.1741C44.9744 13.0745 44.9612 12.9771 44.8899 12.8782C44.8068 12.7371 44.6238 12.6669 44.5098 12.5537Z" fill="#5D87A1"/>
<path d="M60.2333 40.3801H60.5254V38.9506H60.0872L59.7299 39.9261L59.3415 38.9506H58.9196V40.3801H59.1955V39.2925H59.2109L59.6178 40.3801H59.828L60.2333 39.2925V40.3801ZM57.8803 40.3801H58.1894V39.1929H58.5939V38.9502H57.4587V39.1929H57.8795L57.8803 40.3801Z" fill="#F8981D"/>
</svg>
