<svg width="83" height="50" viewBox="0 0 83 50" fill="none" xmlns="http://www.w3.org/2000/svg">
<path d="M19.556 13.0407H35.1877V14.2831H20.9889V23.6341H34.341V24.8765H20.9889V35.1429H35.3505V36.3854H19.556V13.0407ZM36.588 13.0407H38.2489L45.6089 23.3071L53.1316 13.0407L63.3638 0L46.5533 24.3861L55.2159 36.3854H53.4899L45.6089 25.465L37.6953 36.3854H36.0019L44.7296 24.3861L36.588 13.0407ZM55.8346 14.2831V13.0407H73.6483V14.2831H65.4416V36.3854H64.0087V14.2831H55.8346ZM0 13.0407H1.79114L26.4899 50L16.2831 36.3854L1.49804 14.8063L1.43291 36.3854H0V13.0407ZM73.5039 34.768C73.2112 34.768 72.9916 34.5411 72.9916 34.248C72.9916 33.9549 73.2112 33.728 73.5039 33.728C73.8002 33.728 74.0162 33.9549 74.0162 34.248C74.0162 34.5411 73.8002 34.768 73.5039 34.768ZM74.9119 33.4H75.6787C75.6891 33.8153 75.9923 34.0945 76.4384 34.0945C76.9368 34.0945 77.2191 33.7944 77.2191 33.2325V29.673H77.9998V33.236C77.9998 34.248 77.4143 34.8308 76.4454 34.8308C75.5358 34.8308 74.9119 34.2655 74.9119 33.4ZM79.0209 33.3546H79.7946C79.8609 33.8327 80.3279 34.1363 81.0005 34.1363C81.6278 34.1363 82.0879 33.8118 82.0879 33.3651C82.0879 32.9813 81.7951 32.7509 81.1295 32.5939L80.4812 32.4369C79.5716 32.224 79.1569 31.7843 79.1569 31.0445C79.1569 30.1476 79.8887 29.5509 80.9866 29.5509C82.0077 29.5509 82.7535 30.1476 82.7989 30.9956H82.0391C81.9659 30.5315 81.5616 30.2418 80.9761 30.2418C80.3592 30.2418 79.948 30.5385 79.948 30.9921C79.948 31.3516 80.2129 31.5575 80.8681 31.711L81.4222 31.8471C82.4538 32.0879 82.879 32.5067 82.879 33.2639C82.879 34.2271 82.1332 34.8308 80.9413 34.8308C79.826 34.8308 79.0767 34.255 79.0209 33.3546Z" fill="#DEDEDE"/>
</svg>
