<svg width="177" height="50" viewBox="0 0 177 50" fill="none" xmlns="http://www.w3.org/2000/svg">
<g clip-path="url(#clip0)">
<path d="M162.431 17.7969C162.002 17.7969 161.585 17.8855 161.215 18.0945L149.53 24.8427C148.774 25.2786 148.314 26.1014 148.314 26.9769V40.4489C148.314 41.3238 148.774 42.1455 149.53 42.5824L152.582 44.3441C154.064 45.0748 154.611 45.0634 155.286 45.0634C157.481 45.0634 158.734 43.7314 158.734 41.4165V28.1179C158.734 27.93 158.572 27.7955 158.387 27.7955H156.923C156.736 27.7955 156.576 27.93 156.576 28.1179V41.4165C156.576 42.4424 155.507 43.4745 153.773 42.6072L150.597 40.7465C150.484 40.6855 150.398 40.5776 150.398 40.4489V26.9765C150.398 26.8489 150.483 26.7189 150.597 26.6541L162.258 19.931C162.31 19.9002 162.37 19.884 162.431 19.884C162.492 19.884 162.552 19.9002 162.605 19.931L174.266 26.6545C174.377 26.7214 174.464 26.8452 174.464 26.9772V40.4493C174.464 40.5779 174.4 40.7096 174.291 40.7717L162.605 47.4951C162.505 47.5548 162.367 47.5548 162.258 47.4951L159.255 45.7089C159.21 45.6842 159.159 45.6712 159.107 45.6712C159.055 45.6712 159.004 45.6842 158.958 45.7089C158.129 46.1786 157.973 46.2331 157.196 46.5027C157.005 46.5696 156.714 46.6734 157.295 46.9993L161.215 49.3062C161.585 49.5194 162.005 49.6308 162.431 49.6289C162.858 49.6316 163.278 49.5203 163.647 49.3065L175.333 42.5827C176.089 42.1431 176.548 41.3241 176.548 40.4493V26.9769C176.548 26.1017 176.089 25.2803 175.333 24.8434L163.647 18.0952C163.281 17.8858 162.861 17.7972 162.431 17.7972L162.431 17.7969Z" fill="#83CD29"/>
<path d="M165.557 27.4238C162.23 27.4238 160.248 28.84 160.248 31.1952C160.248 33.7497 162.215 34.4518 165.409 34.7676C169.229 35.1418 169.527 35.7028 169.527 36.4549C169.527 37.7593 168.487 38.3155 166.029 38.3155C162.94 38.3155 162.262 37.5445 162.034 36.0083C162.008 35.8435 161.88 35.7104 161.712 35.7104H160.198C160.012 35.7104 159.851 35.8711 159.851 36.058C159.851 38.0245 160.921 40.35 166.029 40.35C169.726 40.35 171.859 38.8987 171.859 36.3556C171.859 33.8349 170.136 33.158 166.55 32.6838C162.925 32.2042 162.58 31.9693 162.58 31.1207C162.58 30.42 162.873 29.4828 165.557 29.4828C167.955 29.4828 168.841 30 169.204 31.6169C169.236 31.7687 169.37 31.8897 169.527 31.8897H171.041C171.134 31.8897 171.224 31.8324 171.289 31.7656C171.352 31.6942 171.397 31.6138 171.388 31.5176C171.153 28.7335 169.297 27.4238 165.557 27.4238Z" fill="#83CD29"/>
<path d="M93.7314 0.131996C93.6008 0.132083 93.4724 0.166191 93.359 0.230962C93.2463 0.296917 93.1527 0.3911 93.0874 0.504231C93.0222 0.617363 92.9875 0.74554 92.9869 0.876134V19.8561C92.9869 20.0423 92.9004 20.2092 92.739 20.3027C92.6599 20.3488 92.57 20.373 92.4785 20.373C92.3869 20.373 92.297 20.3488 92.2179 20.3027L89.1166 18.5165C88.8903 18.3856 88.6336 18.3167 88.3723 18.3167C88.1109 18.3167 87.8542 18.3856 87.6279 18.5165L75.2476 25.6616C74.7848 25.9289 74.5035 26.4423 74.5035 26.9768V41.2675C74.5035 41.8013 74.7852 42.2903 75.2476 42.5575L87.6279 49.703C87.854 49.8343 88.1108 49.9034 88.3723 49.9034C88.6337 49.9034 88.8905 49.8343 89.1166 49.703L101.497 42.5575C101.724 42.4271 101.912 42.2391 102.042 42.0126C102.173 41.786 102.242 41.529 102.241 41.2675V5.63993C102.241 5.37227 102.17 5.1095 102.035 4.87845C101.899 4.64739 101.706 4.45632 101.472 4.32475L94.1035 0.206134C93.9879 0.141651 93.8597 0.130272 93.7314 0.131996ZM14.09 17.9706C13.8542 17.9799 13.6321 18.0213 13.4204 18.1441L1.03968 25.2896C0.812888 25.4199 0.624596 25.6078 0.493907 25.8344C0.363217 26.0609 0.29478 26.318 0.295538 26.5796L0.320366 45.7585C0.320366 46.0251 0.457952 46.273 0.692435 46.4034C0.804852 46.4709 0.933528 46.5066 1.06468 46.5066C1.19582 46.5066 1.3245 46.4709 1.43692 46.4034L8.78071 42.1858C9.24588 41.9092 9.54968 41.4285 9.54968 40.8954V31.9389C9.54968 31.4044 9.83071 30.9141 10.2942 30.6485L13.42 28.8375C13.646 28.7061 13.9031 28.6375 14.1645 28.6389C14.4197 28.6389 14.6817 28.7027 14.9086 28.8375L18.0348 30.6485C18.2618 30.7787 18.4503 30.9667 18.5811 31.1933C18.7119 31.42 18.7803 31.6772 18.7793 31.9389V40.8951C18.7793 41.4282 19.0862 41.9123 19.5483 42.1854L26.8921 46.4034C27.0045 46.4709 27.1332 46.5066 27.2643 46.5066C27.3955 46.5066 27.5242 46.4709 27.6366 46.4034C27.7497 46.3379 27.8437 46.2438 27.909 46.1306C27.9744 46.0174 28.0089 45.8889 28.009 45.7582L28.0331 26.5796C28.0346 26.3179 27.9665 26.0605 27.8357 25.8338C27.7049 25.6072 27.5163 25.4193 27.289 25.2896L14.9086 18.1441C14.6993 18.0213 14.4766 17.9803 14.239 17.9706H14.09ZM125.34 18.1441C125.081 18.1441 124.828 18.2096 124.596 18.3427L112.215 25.4882C111.988 25.6186 111.8 25.8066 111.67 26.0331C111.539 26.2596 111.47 26.5167 111.471 26.7782V41.0689C111.471 41.6065 111.773 42.0934 112.24 42.3592L124.521 49.3558C124.974 49.6144 125.528 49.6341 125.985 49.3799L133.428 45.2368C133.664 45.1058 133.824 44.861 133.825 44.592C133.826 44.461 133.792 44.3321 133.727 44.2186C133.661 44.1052 133.567 44.0113 133.453 43.9468L120.998 36.8013C120.765 36.6682 120.601 36.3989 120.601 36.1313V31.6658C120.601 31.3985 120.767 31.1537 120.998 31.0206L124.868 28.7875C124.981 28.722 125.11 28.6876 125.241 28.6876C125.371 28.6876 125.5 28.722 125.613 28.7875L129.483 31.0206C129.596 31.0858 129.69 31.1797 129.756 31.2929C129.821 31.4062 129.855 31.5347 129.855 31.6654V35.1885C129.855 35.3193 129.889 35.4478 129.954 35.5611C130.02 35.6743 130.114 35.7682 130.227 35.8334C130.459 35.9675 130.74 35.9679 130.971 35.8334L138.39 31.5172C138.616 31.3862 138.804 31.1981 138.935 30.9716C139.066 30.7451 139.134 30.4883 139.134 30.2268V26.7785C139.134 26.2458 138.852 25.7558 138.39 25.4882L126.084 18.3427C125.858 18.2118 125.601 18.1434 125.34 18.1444V18.1441ZM88.3224 28.8127C88.3873 28.8127 88.4631 28.8285 88.521 28.862L92.7638 31.3182C92.879 31.3848 92.9624 31.5079 92.9624 31.6406V36.553C92.9624 36.6865 92.8797 36.8092 92.7638 36.8758L88.521 39.332C88.4644 39.3644 88.4003 39.3814 88.335 39.3814C88.2698 39.3814 88.2056 39.3644 88.149 39.332L83.9066 36.8758C83.791 36.8089 83.7079 36.6865 83.7079 36.553V31.6406C83.7079 31.5075 83.7914 31.3854 83.9066 31.3182L88.149 28.8623C88.2011 28.8299 88.2614 28.8128 88.3228 28.813V28.8127H88.3224Z" fill="#404137"/>
<path d="M51.2807 18.0693C51.0228 18.0693 50.7676 18.1349 50.5366 18.268L38.1562 25.3886C37.6931 25.6552 37.4117 26.1697 37.4117 26.7035V40.9942C37.4117 41.5287 37.6935 42.0169 38.1562 42.2845L50.5366 49.4297C50.7626 49.561 51.0194 49.6302 51.2809 49.6302C51.5423 49.6302 51.7991 49.561 52.0252 49.4297L64.4055 42.2845C64.6322 42.154 64.8204 41.9659 64.951 41.7393C65.0817 41.5128 65.1502 41.2557 65.1497 40.9942V26.7035C65.1497 26.169 64.8683 25.6552 64.4055 25.3886L52.0252 18.268C51.7989 18.1373 51.542 18.0687 51.2807 18.0693ZM125.315 30.8221C125.266 30.8221 125.211 30.8221 125.166 30.8469L122.785 32.2362C122.74 32.2609 122.703 32.2968 122.677 32.3404C122.651 32.384 122.636 32.4337 122.636 32.4845V35.2135C122.636 35.3162 122.695 35.4104 122.785 35.4618L125.166 36.8262C125.256 36.878 125.351 36.878 125.439 36.8262L127.821 35.4614C127.865 35.4366 127.902 35.4007 127.928 35.3572C127.954 35.3137 127.969 35.2642 127.97 35.2135V32.4842C127.969 32.4335 127.954 32.3839 127.928 32.3404C127.902 32.297 127.865 32.261 127.821 32.2362L125.439 30.8466C125.395 30.8207 125.365 30.8224 125.315 30.8224V30.8221Z" fill="#83CD29"/>
</g>
<defs>
<clipPath id="clip0">
<rect width="176.554" height="50" fill="white"/>
</clipPath>
</defs>
</svg>
