<svg width="70" height="70" viewBox="0 0 70 70" fill="none" xmlns="http://www.w3.org/2000/svg">
<path d="M8.75 0C3.91751 0 0 3.91751 0 8.75V61.25C0 66.0823 3.91751 70 8.75 70H61.25C66.0823 70 70 66.0823 70 61.25V8.75C70 3.91751 66.0823 0 61.25 0H8.75ZM30.2567 22.4791L22.4791 30.2567C21.34 31.3958 19.4933 31.3958 18.3543 30.2567L14.4654 26.3679C13.3264 25.2289 13.3264 23.3822 14.4654 22.2432C15.6044 21.1041 17.4512 21.1041 18.5902 22.2432L20.4167 24.0697L26.1321 18.3543C27.2712 17.2153 29.1177 17.2153 30.2567 18.3543C31.3958 19.4933 31.3958 21.34 30.2567 22.4791ZM53.4722 21.3889C55.083 21.3889 56.3889 22.6947 56.3889 24.3056C56.3889 25.9164 55.083 27.2222 53.4722 27.2222H39.8611C38.2503 27.2222 36.9444 25.9164 36.9444 24.3056C36.9444 22.6947 38.2503 21.3889 39.8611 21.3889H53.4722ZM36.9448 45.6944C36.9448 44.0837 38.2503 42.7778 39.8615 42.7778H53.4718C55.083 42.7778 56.3885 44.0837 56.3885 45.6944C56.3885 47.3052 55.083 48.6111 53.4718 48.6111H39.8615C38.2503 48.6111 36.9448 47.3052 36.9448 45.6944ZM30.2567 39.7433C31.3958 40.8823 31.3958 42.7288 30.2567 43.8678L22.4791 51.6456C21.34 52.7847 19.4933 52.7847 18.3543 51.6456L14.4654 47.7567C13.3264 46.6177 13.3264 44.7712 14.4654 43.6322C15.6044 42.4931 17.4512 42.4931 18.5902 43.6322L20.4167 45.4584L26.1321 39.7433C27.2712 38.6042 29.1177 38.6042 30.2567 39.7433Z" fill="#DEDEDE"/>
</svg>
