<svg width="49" height="50" viewBox="0 0 49 50" fill="none" xmlns="http://www.w3.org/2000/svg">
<path d="M48.3693 29.9511C48.0778 29.0682 47.3142 28.4534 46.3267 28.3058C45.8611 28.2363 45.3278 28.2659 44.6968 28.396C43.5969 28.6229 42.7809 28.7093 42.1854 28.726C44.4332 24.9309 46.261 20.6031 47.3132 16.5292C49.0147 9.94186 48.1055 6.94089 47.043 5.5835C44.2312 1.99062 40.1288 0.0604883 35.1796 0.00142988C32.5395 -0.0308529 30.2218 0.490419 29.0127 0.865278C27.887 0.666644 26.6765 0.555744 25.4065 0.535235C23.0257 0.497255 20.9222 1.01625 19.1248 2.08291C18.1298 1.74641 16.5327 1.27204 14.6884 0.969343C10.3508 0.257223 6.85473 0.812107 4.29755 2.61861C1.20106 4.80586 -0.234383 8.60611 0.0310957 13.9138C0.115411 15.5989 1.05807 20.7262 2.54232 25.5887C3.39534 28.3837 4.30496 30.7046 5.24591 32.4878C6.58032 35.0162 8.00817 36.5052 9.61111 37.04C10.5095 37.3393 12.1419 37.5489 13.8588 36.119C14.0764 36.3826 14.3667 36.6444 14.752 36.8877C15.2414 37.1963 15.8398 37.4485 16.4374 37.5979C18.591 38.1363 20.6083 38.0016 22.3294 37.247C22.34 37.5531 22.3482 37.8455 22.355 38.0981C22.3664 38.5077 22.3778 38.9094 22.3928 39.285C22.4948 41.8247 22.6676 43.7994 23.1796 45.1811C23.2077 45.2571 23.2455 45.3729 23.2853 45.4958C23.5408 46.2778 23.9678 47.587 25.0544 48.6122C26.1796 49.6743 27.5406 50 28.7871 50C29.4122 50 30.0087 49.918 30.5319 49.8059C32.3967 49.4062 34.5146 48.7974 36.0467 46.6158C37.4953 44.5535 38.1994 41.4474 38.3268 36.5531C38.3434 36.4147 38.3585 36.2825 38.3732 36.1566L38.4036 35.8979L38.7448 35.928L38.8327 35.9338C40.7321 36.0204 43.0546 35.6177 44.4809 34.9551C45.6079 34.4321 49.2196 32.5253 48.3693 29.9511Z" fill="black"/>
<path d="M45.1217 30.4521C39.4741 31.6172 39.0857 29.7051 39.0857 29.7051C45.0486 20.8571 47.5414 9.62594 45.3904 6.87715C39.5218 -0.621 29.3631 2.92517 29.1935 3.01708L29.139 3.02696C28.0232 2.79528 26.7746 2.65741 25.3711 2.63443C22.8158 2.59266 20.8773 3.3044 19.4064 4.41986C19.4064 4.41986 1.28432 -3.04582 2.12728 13.8092C2.30654 17.3949 7.2667 40.9406 13.1828 33.8287C15.3452 31.2281 17.4346 29.0292 17.4346 29.0292C18.4722 29.7186 19.7146 30.0702 21.0169 29.944L21.1181 29.8581C21.0866 30.181 21.101 30.4968 21.1585 30.8707C19.6344 32.5735 20.0824 32.8724 17.0357 33.4996C13.9527 34.135 15.7637 35.2661 16.9462 35.5619C18.3798 35.9203 21.6962 36.4281 23.937 33.2911L23.8477 33.6491C24.4447 34.1274 24.864 36.7602 24.7938 39.147C24.7235 41.5337 24.6766 43.1723 25.147 44.4522C25.6178 45.7321 26.0866 48.612 30.092 47.7538C33.4385 47.0366 35.1729 45.178 35.4142 42.0777C35.5853 39.8738 35.9729 40.1996 35.9972 38.2291L36.3081 37.2963C36.6664 34.3086 36.3651 33.3447 38.4268 33.793L38.9281 33.8371C40.4454 33.906 42.4318 33.5929 43.5976 33.0511C46.1076 31.8862 47.5964 29.9411 45.1213 30.4521H45.1217Z" fill="#336791"/>
<path d="M20.4671 15.4122C19.9582 15.3414 19.4973 15.4069 19.2641 15.5835C19.1331 15.6828 19.0924 15.7979 19.0814 15.8771C19.0522 16.0869 19.1992 16.319 19.2896 16.4386C19.5452 16.7774 19.9185 17.0102 20.288 17.0615C20.3416 17.0691 20.395 17.0725 20.4479 17.0725C21.0642 17.0725 21.6245 16.5927 21.6739 16.2385C21.7356 15.7949 21.0917 15.4992 20.4671 15.4124V15.4122ZM37.3271 15.4263C37.2785 15.0786 36.6598 14.9794 36.0726 15.0611C35.4862 15.1428 34.9176 15.4075 34.9651 15.756C35.0031 16.0269 35.4925 16.4895 36.0717 16.4895C36.1207 16.4895 36.17 16.4863 36.2198 16.4793C36.6064 16.4257 36.8901 16.1802 37.025 16.0387C37.23 15.823 37.3489 15.5826 37.3271 15.4263Z" fill="white"/>
<path d="M47.0009 30.3197C46.7856 29.6685 46.0925 29.459 44.9409 29.6968C41.5218 30.4024 40.2973 29.9136 39.8953 29.6176C42.553 25.569 44.7393 20.6749 45.9187 16.1088C46.4774 13.9458 46.786 11.9371 46.8112 10.2997C46.8392 8.50273 46.533 7.18217 45.9018 6.37548C43.3568 3.12346 39.6215 1.37905 35.1 1.33119C31.9915 1.29625 29.3652 2.09174 28.8561 2.31544C27.784 2.04882 26.6151 1.88513 25.3426 1.86424C23.0091 1.82645 20.992 2.38513 19.3221 3.52396C18.5967 3.25392 16.722 2.61035 14.4293 2.241C10.4658 1.60294 7.3161 2.08642 5.06846 3.67873C2.38652 5.57885 1.14838 8.97539 1.38822 13.7738C1.46892 15.3881 2.38879 20.3543 3.84038 25.1103C5.75114 31.3702 7.82825 34.9139 10.0136 35.6429C10.2694 35.7282 10.5643 35.7878 10.8896 35.7878C11.6868 35.7878 12.6642 35.4285 13.6811 34.2059C14.9215 32.718 16.2045 31.2662 17.5287 29.8523C18.3878 30.3134 19.3316 30.5709 20.2968 30.5967C20.2987 30.622 20.3012 30.6472 20.3035 30.6723C20.1373 30.8704 19.9746 31.0714 19.8154 31.2752C19.1466 32.1243 19.0074 32.3011 16.8545 32.7443C16.2421 32.8708 14.6156 33.2059 14.5917 34.3461C14.5659 35.5918 16.5144 36.115 16.7364 36.1704C17.5101 36.3641 18.2554 36.4597 18.9662 36.4597C20.6948 36.4597 22.2161 35.8915 23.4319 34.7922C23.3944 39.2331 23.5796 43.6092 24.1128 44.9424C24.5496 46.034 25.6165 48.7015 28.9864 48.7013C29.4809 48.7013 30.0251 48.6438 30.6239 48.5154C34.141 47.7615 35.6684 46.207 36.2591 42.7799C36.5753 40.9483 37.1179 36.5747 37.3731 34.2287C37.9116 34.3968 38.605 34.4737 39.3545 34.4735C40.9177 34.4735 42.7216 34.1414 43.8528 33.6163C45.1236 33.0261 47.4168 31.5779 47.0009 30.3197ZM38.6253 14.4669C38.6137 15.1594 38.5184 15.7882 38.4173 16.4445C38.3085 17.1503 38.1961 17.8801 38.1678 18.766C38.1399 19.6282 38.2476 20.5245 38.3516 21.3914C38.562 23.1422 38.778 24.9448 37.9422 26.7233C37.8034 26.4774 37.6797 26.2231 37.5719 25.962C37.468 25.7102 37.2424 25.3057 36.93 24.7459C35.7149 22.5666 32.8693 17.4633 34.326 15.3809C34.7599 14.761 35.8611 14.1237 38.6253 14.4669ZM35.2747 2.7336C39.326 2.82304 42.5307 4.33862 44.7996 7.238C46.5399 9.46191 44.6236 19.5811 39.0761 28.3109C39.0203 28.24 38.9642 28.1693 38.9078 28.0988L38.8376 28.0111C40.2711 25.6436 39.9908 23.3012 39.7413 21.2244C39.6388 20.3722 39.5419 19.5672 39.5666 18.811C39.592 18.0096 39.698 17.3222 39.8006 16.6576C39.9265 15.8385 40.0546 14.991 40.0193 13.9919C40.0457 13.8871 40.0564 13.7633 40.0425 13.6163C39.9523 12.6583 38.8585 9.791 36.6291 7.19584C35.4095 5.77635 33.6311 4.18784 31.2029 3.11643C32.2473 2.89995 33.6756 2.69809 35.2747 2.7336ZM12.605 33.3111C11.4846 34.6583 10.7109 34.4 10.4565 34.3153C8.79864 33.7623 6.87496 30.2583 5.17898 24.7019C3.71144 19.894 2.85386 15.0594 2.78587 13.7037C2.57167 9.41614 3.61098 6.42808 5.87515 4.8223C9.55994 2.20929 15.6181 3.7733 18.0524 4.5665C18.0175 4.60106 17.981 4.63335 17.9464 4.66848C13.9517 8.70269 14.0465 15.5953 14.0564 16.0167C14.056 16.1792 14.0697 16.4094 14.0883 16.7259C14.157 17.8853 14.285 20.0429 13.9432 22.4863C13.6257 24.7569 14.3256 26.9793 15.8633 28.5838C16.0211 28.7481 16.1869 28.9045 16.3602 29.0525C15.6758 29.7855 14.1883 31.4064 12.605 33.3111ZM16.8737 27.6155C15.6344 26.3223 15.0716 24.5236 15.3293 22.68C15.6901 20.0989 15.5569 17.8509 15.4854 16.6431C15.4753 16.4741 15.4664 16.326 15.4612 16.2092C16.0448 15.6917 18.7491 14.2428 20.6778 14.6847C21.5577 14.8862 22.094 15.4855 22.317 16.5163C23.4708 21.853 22.4696 24.0773 21.6652 25.8648C21.4994 26.233 21.3428 26.5811 21.2091 26.9412L21.1054 27.2196C20.843 27.9233 20.5988 28.5777 20.4474 29.1991C19.1299 29.1953 17.8483 28.6324 16.8737 27.6153V27.6155ZM17.0759 34.8127C16.6912 34.7166 16.3452 34.5497 16.1422 34.4112C16.3118 34.3315 16.6135 34.2228 17.1369 34.115C19.6696 33.5937 20.0608 33.2257 20.9149 32.1412C21.1107 31.8924 21.3327 31.6106 21.6402 31.2672L21.6405 31.2669C22.0984 30.7541 22.3078 30.8411 22.6876 30.9987C22.9955 31.126 23.2953 31.5118 23.4169 31.9365C23.4744 32.137 23.539 32.5175 23.3276 32.8138C21.5433 35.3121 18.9432 35.28 17.0759 34.8127ZM30.3307 47.147C27.2323 47.8109 26.1353 46.23 25.4123 44.4227C24.9457 43.256 24.7163 37.9946 24.8791 32.1843C24.8812 32.107 24.8701 32.0324 24.8489 31.9621C24.8299 31.8233 24.8009 31.6861 24.7623 31.5515C24.5204 30.7061 23.9307 29.9989 23.2233 29.7057C22.9423 29.5893 22.4265 29.3757 21.8067 29.5342C21.9389 28.9896 22.1681 28.3745 22.4167 27.7085L22.5209 27.4284C22.6383 27.1126 22.7856 26.7854 22.9413 26.4391C23.7832 24.5689 24.936 22.0074 23.6848 16.2206C23.2161 14.0531 21.651 12.9946 19.2784 13.2405C17.856 13.3877 16.5547 13.9616 15.9056 14.2907C15.766 14.3613 15.6384 14.4297 15.5192 14.4961C15.7003 12.3123 16.3847 8.23098 18.9449 5.64874C20.557 4.0232 22.7038 3.22031 25.3195 3.26361C30.4733 3.34792 33.7783 5.99283 35.6435 8.19699C37.2508 10.0962 38.1211 12.0094 38.4684 13.0413C35.8564 12.7756 34.0799 13.2912 33.1794 14.5787C31.2202 17.3794 34.2511 22.815 35.7079 25.4275C35.975 25.9062 36.2056 26.32 36.2781 26.4958C36.7525 27.6455 37.3666 28.4131 37.815 28.9733C37.9525 29.1449 38.0858 29.3115 38.1872 29.4569C37.3961 29.685 35.975 30.212 36.1046 32.8461C36.0001 34.1678 35.2574 40.3558 34.8801 42.5421C34.382 45.4305 33.3191 46.5063 30.3307 47.1472V47.147ZM43.2636 32.347C42.4546 32.7224 41.1008 33.0041 39.8148 33.0646C38.3944 33.1311 37.6712 32.9055 37.5011 32.7667C37.4213 31.1252 38.0322 30.9537 38.6788 30.7722C38.7804 30.7437 38.8796 30.7158 38.9753 30.6824C39.0347 30.7308 39.0998 30.7788 39.1712 30.8259C40.3129 31.5794 42.3492 31.6607 45.2241 31.0673L45.2556 31.061C44.8678 31.4235 44.2043 31.9101 43.2636 32.347Z" fill="white"/>
</svg>
