<svg width="59" height="70" viewBox="0 0 59 70" fill="none" xmlns="http://www.w3.org/2000/svg">
<path d="M26.5422 0C11.8522 0 -0.0277732 11.88 4.87679e-05 26.57C4.87679e-05 35.0556 3.97859 42.5954 10.1551 47.4642V70H16.721V66.3831H23.0088V70H38.45V61.876H42.6233C48.4102 61.876 53.0843 57.1741 53.0843 51.3871V43.9587H56.6455C57.8419 43.9587 58.7878 42.9849 58.7878 41.8164C58.7878 41.5103 58.7322 41.2321 58.6209 40.9817L53.0843 27.0151C53.0843 27.0151 52.5 21.2281 51.9992 19.0024C49.69 9.04213 38.5891 0 26.5422 0ZM23.0088 55.1987H16.721V51.8045H23.0088V55.1987ZM23.0088 50.3577H16.721V46.9634H23.0088V50.3577ZM23.0088 60.0954H16.721V56.6733H23.0088V60.0954ZM23.0088 64.9364H16.721V61.5143H23.0088V64.9364ZM23.0088 45.5167H16.6932V42.8736C16.6932 42.6232 16.6654 42.3728 16.6654 42.1224H23.0088V45.5167ZM5.56444 22.5079C5.56444 20.9221 6.09305 19.5032 6.95553 18.4181C6.81642 17.8617 6.73296 17.2496 6.73296 16.6375C6.73296 13.5493 8.76396 10.9618 11.574 10.0994C12.659 7.70668 15.0517 6.03736 17.8061 6.03736C18.3625 6.03736 18.8911 6.12083 19.3919 6.23211C20.6161 5.09141 22.2576 4.39587 24.0382 4.39587C25.4293 4.39587 26.7369 4.8132 27.822 5.53657C28.7958 5.00795 29.8808 4.72973 31.0493 4.72973C33.4142 4.72973 35.5008 5.89825 36.725 7.70668C36.8919 7.70668 37.0589 7.67886 37.2258 7.67886C40.5088 7.67886 43.2353 9.98808 43.9031 13.0485C46.3792 14.1057 48.132 16.5819 48.132 19.4754C48.132 23.3426 45.0159 26.4587 41.1487 26.4587C39.7298 26.4587 38.4221 26.0413 37.3371 25.318C36.252 26.0413 34.9166 26.4865 33.4977 26.4865C32.0787 26.4865 30.7711 26.0413 29.6582 25.2901C28.907 26.1526 27.822 26.8204 26.8204 27.2099C24.7059 28.1002 23.0088 30.6598 23.0088 33.3585V40.7035H20.5048V32.9968C20.5326 30.2703 19.531 28.0723 17.4444 26.8482C16.8601 26.4865 16.3593 26.1248 15.942 25.7075C15.9142 25.6797 15.8586 25.624 15.8307 25.5962C15.3021 25.0119 14.9404 24.372 14.7735 23.5652C15.2743 23.3983 15.8029 23.3148 16.3593 23.3148C17.0271 23.3148 17.7226 23.4261 18.3903 23.7043C18.7799 23.8712 19.1972 23.6765 19.3363 23.3148C19.5032 22.9531 19.3085 22.5079 18.9468 22.3688C18.1121 22.035 17.2497 21.868 16.3872 21.868C15.7751 21.868 15.1908 21.9515 14.6344 22.0906C14.6344 19.0859 17.0549 16.6653 20.0597 16.6653C21.1725 16.6653 22.202 16.3871 23.1201 15.942C23.9826 16.9436 24.4277 18.1955 24.4277 19.4754V19.6701C24.4277 19.6979 24.4277 19.6979 24.4277 19.7258C24.3999 21.0334 23.8991 22.3132 22.9253 23.3426C22.6471 23.6486 22.6471 24.0938 22.9531 24.372C23.0923 24.5111 23.287 24.5668 23.4539 24.5668C23.6487 24.5668 23.8434 24.4833 23.9826 24.3442C25.0676 23.2035 25.6797 21.7568 25.8466 20.31C26.2083 20.2266 26.57 20.1987 26.9595 20.1987C27.822 20.1987 28.6845 20.3935 29.5191 20.8386C29.6304 20.8943 29.7417 20.9221 29.853 20.9221C30.1034 20.9221 30.3538 20.783 30.4929 20.5326C30.6598 20.1709 30.5485 19.7536 30.1868 19.5588C29.1574 19.0024 28.0446 18.752 26.9595 18.752C26.5978 18.752 26.2083 18.7798 25.8466 18.8355C25.7075 17.5556 25.2067 16.3037 24.3442 15.2464C25.1789 14.5509 25.8745 13.6884 26.3196 12.6868C27.5159 13.5493 28.9349 13.9944 30.3538 13.9944C30.8546 13.9944 31.3276 13.9388 31.8283 13.8275C32.3013 17.1661 35.167 19.7536 38.6447 19.7536H38.7282C40.2028 19.7536 41.5382 20.3378 42.512 21.2838C42.6511 21.4229 42.818 21.4785 42.9849 21.4785C43.1797 21.4785 43.3745 21.3951 43.5136 21.256C43.8196 20.9499 43.8196 20.5048 43.5136 20.2265C42.2894 19.0024 40.5923 18.279 38.7282 18.279H38.6447C38.1717 18.279 37.6988 18.1955 37.2536 18.0843C37.9213 17.194 38.8395 16.4706 40.008 16.1089C40.3975 15.9976 40.5923 15.6081 40.481 15.2186C40.3419 14.8291 39.9524 14.6343 39.5628 14.7456C38.0048 15.2186 36.725 16.248 35.8903 17.5278C34.4436 16.6653 33.3864 15.1351 33.2473 13.3267C33.9706 12.9928 34.6384 12.5199 35.2226 11.9356C35.5008 11.6296 35.5008 11.1844 35.2226 10.9062C34.9166 10.628 34.4714 10.628 34.1932 10.9062C33.6089 11.4626 32.9412 11.9078 32.2178 12.1582C32.19 12.1582 32.19 12.1582 32.19 12.1582C31.6058 12.3808 30.9937 12.4921 30.3538 12.4921C29.074 12.4921 27.822 12.0469 26.7926 11.1566C26.876 10.7114 26.9317 10.2663 26.9317 9.79332C26.9317 9.40382 26.6256 9.06995 26.2083 9.06995C25.8188 9.06995 25.4849 9.40382 25.4849 9.79332C25.4849 12.5755 23.4261 14.8569 20.7274 15.1908C20.5326 13.6049 19.8093 12.1582 18.752 11.101C18.4738 10.8227 18.0008 10.8227 17.7226 11.101C17.4444 11.3792 17.4444 11.8243 17.7226 12.1025C18.5851 12.9372 19.1415 14.0501 19.2806 15.2742C16.9993 15.5525 15.0517 16.9157 13.9945 18.8633C12.6869 18.6963 11.5462 18.0564 10.6837 17.1383C10.4333 16.8323 9.98812 16.8045 9.68208 17.0827C9.37604 17.3609 9.34822 17.806 9.62644 18.1121C10.6002 19.1693 11.9357 19.9483 13.438 20.2265C13.2433 20.8386 13.1598 21.4785 13.1598 22.1184C13.1598 22.1463 13.1598 22.1463 13.1598 22.1463C13.132 23.593 13.4937 24.8172 14.1614 25.8188C12.8816 26.3752 11.7687 27.3768 11.0175 28.6844C10.8228 29.0183 10.9341 29.4634 11.2958 29.6582C11.407 29.7138 11.5462 29.7417 11.6574 29.7417C11.9078 29.7417 12.1582 29.6025 12.2973 29.38C12.9651 28.2114 14.0223 27.3768 15.1908 26.9595C15.636 27.3768 16.1646 27.7663 16.7489 28.1002C18.3347 29.0461 19.0859 30.6041 19.1137 32.9968V40.7035H16.4985C15.9977 37.3649 14.3283 34.5827 11.5462 32.969V32.9412C9.26475 31.9396 7.62326 29.7695 7.42851 27.182C6.28781 25.9579 5.56444 24.3164 5.56444 22.5079Z" fill="#DEDEDE"/>
</svg>
