<svg width="60" height="54" viewBox="0 0 60 54" fill="none" xmlns="http://www.w3.org/2000/svg">
<path d="M30.2586 32.2223C33.1702 32.2223 35.5304 29.8621 35.5304 26.9505C35.5304 24.039 33.1702 21.6787 30.2586 21.6787C27.3471 21.6787 24.9868 24.039 24.9868 26.9505C24.9868 29.8621 27.3471 32.2223 30.2586 32.2223Z" fill="#00D8FF"/>
<path fill-rule="evenodd" clip-rule="evenodd" d="M30.2585 16.2314C37.3366 16.2314 43.912 17.2471 48.8698 18.9539C54.8433 21.0104 58.516 24.1276 58.516 26.9501C58.516 29.8915 54.6237 33.203 48.2089 35.3284C43.3593 36.9351 36.9774 37.7739 30.2585 37.7739C23.3697 37.7739 16.8464 36.9866 11.9421 35.3107C5.73725 33.1899 2 29.8355 2 26.9501C2 24.1505 5.5067 21.0574 11.3962 19.004C16.3725 17.2691 23.1103 16.2314 30.2575 16.2314H30.2585Z" stroke="#00D8FF" stroke-width="2.66"/>
<path fill-rule="evenodd" clip-rule="evenodd" d="M20.9275 21.6219C24.4636 15.4904 28.6281 10.3017 32.5836 6.85956C37.3492 2.71226 41.8843 1.08806 44.3294 2.49799C46.8775 3.9674 47.8016 8.99374 46.4381 15.6122C45.4083 20.6162 42.9457 26.5634 39.5891 32.3838C36.1475 38.3514 32.2068 43.609 28.3053 47.0193C23.3684 51.3349 18.5954 52.8967 16.096 51.4552C13.6706 50.0576 12.7431 45.4738 13.9066 39.3459C14.8897 34.1684 17.3568 27.8134 20.9263 21.6218L20.9275 21.6219Z" stroke="#00D8FF" stroke-width="2.66"/>
<path fill-rule="evenodd" clip-rule="evenodd" d="M20.9364 32.3999C17.3903 26.2753 14.976 20.0747 13.9682 14.9289C12.7551 8.7289 13.6128 3.9885 16.0556 2.57447C18.6012 1.10076 23.4174 2.81028 28.4704 7.29701C32.2909 10.6892 36.214 15.7918 39.5804 21.6068C43.0318 27.5686 45.6186 33.6086 46.6249 38.6918C47.8982 45.1243 46.8676 50.0393 44.3705 51.4848C41.9475 52.8875 37.5136 51.4025 32.7859 47.334C28.7913 43.8966 24.5175 38.5853 20.9364 32.3998V32.3999Z" stroke="#00D8FF" stroke-width="2.66"/>
</svg>
