<svg width="72" height="70" viewBox="0 0 72 70" fill="none" xmlns="http://www.w3.org/2000/svg">
<path d="M55 37.5C46.04 37.5 38.75 44.79 38.75 53.75C38.75 62.71 46.04 70 55 70C63.96 70 71.25 62.71 71.25 53.75C71.25 44.79 63.96 37.5 55 37.5ZM55 67.5C47.4187 67.5 41.25 61.3312 41.25 53.75C41.25 46.1687 47.4187 40 55 40C62.5812 40 68.75 46.1687 68.75 53.75C68.75 61.3312 62.5812 67.5 55 67.5Z" fill="#DEDEDE"/>
<path d="M62.5 52.5H56.25V46.25C56.25 45.5588 55.69 45 55 45C54.31 45 53.75 45.5588 53.75 46.25V52.5H47.5C46.81 52.5 46.25 53.0588 46.25 53.75C46.25 54.4412 46.81 55 47.5 55H53.75V61.25C53.75 61.9412 54.31 62.5 55 62.5C55.69 62.5 56.25 61.9412 56.25 61.25V55H62.5C63.19 55 63.75 54.4412 63.75 53.75C63.75 53.0588 63.19 52.5 62.5 52.5Z" fill="#DEDEDE"/>
<path d="M33.75 53.75C33.06 53.75 32.5 53.1912 32.5 52.5C32.5 51.8088 33.06 51.25 33.75 51.25H35.1738C36.1162 43.7475 41.2238 37.54 48.1063 35H33.75C33.06 35 32.5 34.4412 32.5 33.75C32.5 33.0588 33.06 32.5 33.75 32.5H56.25C56.94 32.5 57.5 33.0588 57.5 33.75C57.5 33.81 57.4738 33.8613 57.4662 33.9188C61.2337 34.385 64.6787 35.8963 67.5 38.1625V15.22C67.5 6.8275 60.6725 0 52.28 0H15.22C6.8275 0 0 6.8275 0 15.22V52.28C0 60.6725 6.8275 67.5 15.22 67.5H40.515C37.1062 63.9113 35 59.0775 35 53.75H33.75ZM33.75 15H56.25C56.94 15 57.5 15.5588 57.5 16.25C57.5 16.9412 56.94 17.5 56.25 17.5H33.75C33.06 17.5 32.5 16.9412 32.5 16.25C32.5 15.5588 33.06 15 33.75 15ZM25.86 47.0625L17.2887 57.0612C17.0425 57.3487 16.6925 57.4987 16.3388 57.4987C16.0775 57.4987 15.8137 57.4175 15.5887 57.2487L9.875 52.9625C9.3225 52.5487 9.21125 51.765 9.625 51.2138C10.04 50.6613 10.8225 50.5513 11.375 50.9637L16.1525 54.5462L23.9625 45.4375C24.4112 44.9125 25.2025 44.8525 25.725 45.3025C26.2488 45.7513 26.3088 46.5388 25.86 47.0625ZM25.86 28.3125L17.2887 38.3125C17.0425 38.6 16.6925 38.75 16.3388 38.75C16.0775 38.75 15.8137 38.6688 15.5887 38.5L9.875 34.2137C9.3225 33.8 9.21125 33.0163 9.625 32.465C10.04 31.9125 10.8225 31.8012 11.375 32.215L16.1525 35.7975L23.9625 26.6875C24.4112 26.1625 25.2025 26.1025 25.725 26.5525C26.2488 27.0013 26.3088 27.7887 25.86 28.3125ZM25.86 10.8125L17.2887 20.8125C17.0425 21.1 16.6925 21.25 16.3388 21.25C16.0775 21.25 15.8137 21.1687 15.5887 21L9.875 16.7138C9.3225 16.3 9.21125 15.5163 9.625 14.965C10.04 14.4125 10.8225 14.3013 11.375 14.715L16.1525 18.2975L23.9625 9.1875C24.4112 8.6625 25.2025 8.6025 25.725 9.0525C26.2488 9.50125 26.3088 10.2887 25.86 10.8125Z" fill="#DEDEDE"/>
</svg>
