<svg height="100" viewBox="0 0 100 100" width="100" xmlns="http://www.w3.org/2000/svg"><path d="m50 25.06 26.5 3.94v2.32c0 3.45-11.87 6.23-26.51 6.23s-26.5-2.78-26.5-6.23v-2.52z" fill="#8c3123"/><path d="m50 41.8c11.07 0 20.55-1.59 24.52-3.85l1.3-2.2.53-2v2.48l-8.67 37c0 2.3-7.91 4.15-17.67 4.15s-17.66-1.85-17.66-4.15l-8.67-37v-2.43l2 4.23c3.98 2.22 13.37 3.77 24.32 3.77z" fill="#8c3123"/><g fill="#e05243"><path d="m50 22.58c14.64 0 26.51 2.79 26.51 6.22s-11.88 6.2-26.51 6.2-26.5-2.75-26.5-6.2 11.86-6.22 26.5-6.22z"/><path d="m50 39.32c13.65 0 24.88-2.41 26.34-5.53l-8.67 37c0 2.3-7.91 4.15-17.67 4.15s-17.67-1.84-17.67-4.14l-8.67-37c1.47 3.11 12.7 5.52 26.34 5.52z"/></g></svg>