<svg width="105" height="70" viewBox="0 0 105 70" fill="none" xmlns="http://www.w3.org/2000/svg">
<path d="M17.6318 58.1494L17.081 47.5487C16.9107 44.1226 16.3331 41.4937 15.3434 39.6755C14.3626 37.8572 12.7861 36.2807 10.6229 34.9731C12.9205 33.5177 14.4656 31.9948 15.3075 30.405C16.1494 28.8196 16.6869 27.1446 16.9153 25.407C17.1482 23.6559 17.3318 19.8716 17.484 14.0449C17.5332 11.9401 17.9139 10.5247 18.5947 9.79036C19.2845 9.06037 21.3939 8.70201 24.923 8.70201V0H22.9882C19.598 0 16.9869 0.300011 15.1464 0.895676C13.2967 1.49134 11.7918 2.45865 10.6231 3.78887C9.45879 5.12346 8.7153 6.78505 8.42422 8.75558C8.11528 10.7307 7.96288 13.7715 7.96288 17.8695C7.96288 23.2483 7.30016 26.7191 5.96536 28.2553C4.62621 29.7915 2.64675 30.5796 0 30.6021V39.3442C2.6916 39.4382 4.52323 40.0652 5.49967 41.2163C6.46262 42.3717 7.11641 43.6392 7.46127 45.0276C7.7972 46.4159 7.96288 49.5867 7.96288 54.5399C7.96288 59.0275 8.43315 62.2877 9.38716 64.3031C10.3277 66.3274 11.8593 67.7739 13.9687 68.6698C16.0825 69.543 19.0833 70 22.9751 70H24.8651V61.2534C21.9048 61.2534 20.0192 60.9891 19.1908 60.4742C18.3707 59.9408 17.8512 59.1705 17.6318 58.1494Z" fill="#DEDEDE"/>
<path d="M104.354 39.3439V30.5929C101.712 30.4943 99.9161 29.8943 98.9534 28.7927C97.9994 27.691 97.3367 26.4683 96.9604 25.1427C96.5799 23.8081 96.3916 20.5657 96.3916 15.4242C96.3916 10.9412 95.9259 7.68965 94.9764 5.67885C94.0315 3.66804 92.4954 2.21698 90.3814 1.33023C88.263 0.452405 85.2668 0 81.375 0H79.4358V8.68831C82.4947 8.68831 84.3846 8.9032 85.1279 9.34211C85.8625 9.78102 86.3327 10.3005 86.5252 10.9096C86.7222 11.5142 86.8879 13.9058 87.0357 18.0933C87.1836 22.2852 87.403 25.1425 87.6896 26.6832C87.9763 28.2283 88.536 29.657 89.3646 30.9602C90.1841 32.277 91.6443 33.6026 93.7268 34.9685C91.7652 36.1061 90.323 37.4453 89.4138 38.9769C88.5003 40.5085 87.8957 42.1522 87.5866 43.9212C87.2909 45.6857 87.0671 49.6716 86.9238 55.8878C86.879 58.051 86.4625 59.4886 85.7057 60.1872C84.9444 60.8948 82.8752 61.2442 79.4939 61.2442V69.9909H81.4196C84.8055 69.9909 87.412 69.6863 89.2614 69.0952C91.1022 68.495 92.616 67.5322 93.7803 66.1976C94.9403 64.863 95.6703 63.2015 95.9524 61.2309C96.257 59.2469 96.3959 56.1926 96.3959 52.0634C96.3959 46.7116 97.0632 43.263 98.4024 41.7135C99.728 40.1549 101.716 39.3711 104.359 39.3444C104.359 39.3439 104.354 39.3439 104.354 39.3439Z" fill="#DEDEDE"/>
<path d="M82.6558 34.8565C82.4498 34.8386 82.2706 34.7938 82.078 34.7713C82.2615 34.7354 82.4407 34.6951 82.6468 34.6818H81.4734C73.1164 33.6832 65.7671 30.7497 60.3212 26.616C56.1874 21.1744 53.254 13.8297 52.2599 5.45942V4.29944C52.242 4.49647 52.1837 4.68457 52.1704 4.87725C52.1436 4.68457 52.0942 4.49647 52.0763 4.29944V5.45942C51.082 13.8299 48.1486 21.1701 44.015 26.616C38.5916 30.7451 31.2468 33.6832 22.8807 34.6818H21.7207C21.9267 34.6953 22.1058 34.74 22.2985 34.7713C22.1058 34.7938 21.9269 34.834 21.7207 34.8519H22.885C31.2466 35.8505 38.5914 38.784 44.0327 42.9132C48.1664 48.3636 51.0999 55.7039 52.094 64.0743V65.2343C52.1118 65.0373 52.1612 64.8492 52.188 64.6521C52.2059 64.8448 52.2597 65.0327 52.2775 65.2343V64.0743C53.2718 55.7084 56.2053 48.3636 60.3388 42.9132C65.7847 38.784 73.1251 35.8505 81.491 34.8608L82.6558 34.8565ZM54.5933 37.1943C53.4647 38.2556 52.6317 39.5948 52.1839 41.122C51.736 39.5948 50.8941 38.2558 49.7609 37.1943C48.7039 36.0613 47.3604 35.2192 45.8153 34.7713C47.3604 34.3235 48.7039 33.477 49.7609 32.344C50.8939 31.2781 51.736 29.9346 52.1839 28.4163C52.6317 29.939 53.4647 31.2825 54.5933 32.344C55.6547 33.477 57.0028 34.3235 58.53 34.7713C57.0028 35.2192 55.6547 36.0613 54.5933 37.1943Z" fill="#DEDEDE"/>
</svg>
