<svg width="62" height="50" viewBox="0 0 62 50" fill="none" xmlns="http://www.w3.org/2000/svg">
<path d="M59.6864 5.77035C58.727 6.19587 57.7406 6.55501 56.7327 6.84657C57.926 5.49711 58.8357 3.90928 59.3911 2.17174C59.5156 1.78227 59.3865 1.35596 59.0664 1.10123C58.7467 0.846316 58.3024 0.815781 57.9504 1.0244C55.81 2.29388 53.5007 3.20619 51.0794 3.73967C48.6403 1.35635 45.3276 0 41.9029 0C34.674 0 28.7927 5.88107 28.7927 13.1098C28.7927 13.6791 28.8288 14.2453 28.9001 14.8036C19.9296 14.016 11.59 9.60694 5.86318 2.58209C5.65909 2.3317 5.34467 2.19676 5.02278 2.22256C4.70068 2.24778 4.41128 2.42941 4.24856 2.70856C3.08704 4.70162 2.47299 6.98112 2.47299 9.30041C2.47299 12.4593 3.60082 15.4565 5.59309 17.7984C4.98732 17.5886 4.39946 17.3264 3.83841 17.015C3.53719 16.8473 3.16959 16.8499 2.87034 17.0215C2.5709 17.1931 2.38316 17.5086 2.37528 17.8536C2.3739 17.9117 2.3739 17.9698 2.3739 18.0287C2.3739 22.7439 4.91167 26.9891 8.7916 29.3029C8.45827 29.2696 8.12514 29.2213 7.79418 29.1581C7.45298 29.0929 7.10212 29.2125 6.87202 29.4727C6.64153 29.7327 6.56529 30.0952 6.67148 30.4262C8.10761 34.9099 11.8051 38.2079 16.2751 39.2134C12.5677 41.5355 8.32806 42.7517 3.87741 42.7517C2.94875 42.7517 2.01477 42.6972 1.10069 42.589C0.646599 42.535 0.212409 42.8032 0.057763 43.235C-0.0968826 43.667 0.0670221 44.1487 0.453341 44.3963C6.1709 48.0623 12.782 50 19.5717 50C32.9193 50 41.2692 43.7058 45.9233 38.4256C51.7269 31.8416 55.0555 23.1269 55.0555 14.5162C55.0555 14.1565 55.05 13.7932 55.0389 13.4311C57.3287 11.706 59.3001 9.61817 60.9042 7.2185C61.1479 6.85405 61.1215 6.37239 60.8392 6.03689C60.5573 5.7012 60.0875 5.59266 59.6864 5.77035Z" fill="#191919"/>
</svg>
